<svg width="238" height="65" viewBox="0 0 238 65" fill="none" xmlns="http://www.w3.org/2000/svg">
<path d="M32 16H44.7564C47.1862 16 49.0085 16.615 50.3584 17.6401C51.8433 18.8701 52.6532 20.6468 52.6532 22.8335C52.6532 25.362 51.6408 26.9337 49.616 27.8904V28.0271C52.3158 28.9154 53.8681 31.3755 53.8681 34.3139C53.8681 37.1157 52.7882 39.3025 51.0333 40.6692C49.5485 41.7625 47.6586 42.2409 45.0939 42.2409H32V16ZM43.474 26.2504C44.8239 26.2504 45.8363 25.4987 45.8363 23.927C45.8363 22.4235 44.8239 21.6718 43.4065 21.6718H39.0194V26.182H43.474V26.2504ZM44.0815 36.4323C45.6338 36.4323 46.7812 35.4756 46.7812 33.7673C46.7812 31.9222 45.5663 31.1022 44.0815 31.1022H39.0869V36.5007H44.0815V36.4323Z" fill="#230B59"/>
<path d="M55.0155 16H61.6974V42.3092H55.0155V16Z" fill="#230B59"/>
<path d="M63.0473 32.9473C63.0473 27.0021 66.827 23.0386 72.699 23.0386C78.571 23.0386 82.283 27.0704 82.283 32.9473C82.283 38.8924 78.571 42.8559 72.699 42.8559C66.827 42.8559 63.0473 38.8924 63.0473 32.9473ZM75.6012 32.9473C75.6012 29.6672 74.5888 27.6171 72.564 27.6171C70.5392 27.6171 69.5943 29.6672 69.5943 32.9473C69.5943 36.2274 70.5392 38.3458 72.564 38.3458C74.5888 38.2774 75.6012 36.2274 75.6012 32.9473Z" fill="#230B59"/>
<path d="M83.0256 32.9473C83.0256 27.0021 86.8055 23.0386 92.6774 23.0386C98.5492 23.0386 102.194 27.0021 102.194 32.9473C102.194 38.8924 98.4815 42.8559 92.6097 42.8559C86.8055 42.8559 83.0256 38.8924 83.0256 32.9473ZM95.5797 32.9473C95.5797 29.6672 94.5673 27.6171 92.5425 27.6171C90.5177 27.6171 89.5724 29.6672 89.5724 32.9473C89.5724 36.2274 90.5177 38.3458 92.5425 38.3458C94.5673 38.2774 95.5797 36.2274 95.5797 32.9473Z" fill="#230B59"/>
<path d="M103.544 23.5169H109.753V26.3186H109.888C111.103 24.1319 112.791 22.9702 115.49 22.9702C117.853 22.9702 119.607 24.1319 120.485 26.182H120.62C122.105 23.7219 124.062 22.9702 126.357 22.9702C130.677 22.9702 132.499 26.182 132.499 30.4871V42.2408H126.019V31.6488C126.019 29.7354 125.412 28.5054 123.792 28.5054C122.172 28.5054 121.362 30.0088 121.362 32.0588V42.2408H114.883V31.6488C114.883 29.7354 114.275 28.5054 112.656 28.5054C111.036 28.5054 110.226 30.0088 110.226 32.0588V42.2408H103.544V23.5169Z" fill="#230B59"/>
<path d="M140.666 39.7808H140.598V42.2409H134.389V16H140.868V25.4303H141.003C142.218 23.7903 143.906 22.9019 146.268 22.9019C150.925 22.9019 153.625 27.1387 153.625 32.8106C153.625 39.1658 150.722 42.8559 145.863 42.8559C143.838 42.8559 141.745 41.8992 140.666 39.7808ZM146.943 32.7422C146.943 29.7355 145.863 27.7537 143.906 27.7537C141.881 27.7537 140.666 29.7355 140.666 32.7422C140.666 35.749 141.948 37.7308 143.906 37.7308C145.863 37.7308 146.943 35.8173 146.943 32.7422Z" fill="#230B59"/>
<path d="M154.367 32.8788C154.367 27.002 158.214 22.9702 163.749 22.9702C166.516 22.9702 168.608 23.8586 170.228 25.4303C172.388 27.5487 173.333 30.8288 173.265 34.6556H160.846C161.117 36.979 162.196 38.2091 164.154 38.2091C165.301 38.2091 166.313 37.6624 166.719 36.4323H172.995C171.916 40.7375 168.608 42.8559 163.951 42.8559C158.214 42.7875 154.367 38.8241 154.367 32.8788ZM160.846 30.8971H166.786C166.651 28.6421 165.436 27.4804 163.883 27.4804C162.061 27.412 161.049 28.7104 160.846 30.8971Z" fill="#230B59"/>
<path d="M180.622 26.7288H180.757C182.107 24.132 183.862 23.1069 186.089 23.1069C186.629 23.1069 186.967 23.1753 187.169 23.3119V29.0522H187.034C183.187 28.3688 180.96 30.2139 180.96 34.4507V42.3093H174.413V23.5169H180.622V26.7288Z" fill="#230B59"/>
<path d="M187.844 42.3092H194.121C194.391 43.1292 195.201 43.8809 196.753 43.8809C198.845 43.8809 199.588 42.5825 199.588 40.6008V39.2341H199.453C198.441 40.4641 197.023 41.3525 194.998 41.3525C191.016 41.3525 187.506 38.3457 187.506 32.4688C187.506 27.0703 190.341 22.9019 194.661 22.9019C197.158 22.9019 198.643 23.9269 199.656 25.4986H199.791V23.4485H206V39.7124C206 42.7192 204.988 45.0426 203.435 46.4093C201.815 47.8443 199.52 48.4593 196.888 48.4593C191.893 48.5277 188.452 46.4776 187.844 42.3092ZM199.858 32.1955C199.858 29.8721 198.778 27.9587 196.888 27.9587C195.066 27.9587 193.919 29.5987 193.919 32.1955C193.919 34.7239 195.066 36.5006 196.888 36.5006C198.711 36.5006 199.858 34.6555 199.858 32.1955Z" fill="#230B59"/>
</svg>
