<svg width="124" height="79" viewBox="0 0 124 79" fill="none" xmlns="http://www.w3.org/2000/svg">
<path d="M33.0942 42.782C33.0942 46.1643 35.8233 48.9064 39.1898 48.9064H59.1274L42.5215 37.6523C41.5638 37.0231 40.4192 36.6572 39.1898 36.6572C35.8233 36.6572 33.0942 39.3997 33.0942 42.782Z" fill="#230B59"/>
<path d="M39.0842 26.6564C37.2527 29.4919 38.0544 33.283 40.8745 35.1244L58.2449 46.9716L49.7586 27.5126C49.2815 26.4252 48.4986 25.5019 47.5064 24.8564C44.6867 23.0151 40.9157 23.8211 39.0842 26.6564Z" fill="#230B59"/>
<path d="M91.0029 42.782C91.0029 46.168 88.2675 48.9127 84.8931 48.9127V48.913H64.9099L81.5541 37.6474C82.5141 37.0175 83.6611 36.6514 84.8931 36.6514C88.2675 36.6514 91.0029 39.396 91.0029 42.782Z" fill="#230B59"/>
<path d="M85.0029 26.6483C86.8384 29.4863 86.035 33.2815 83.2084 35.1244L65.7992 46.9831L74.3046 27.5058C74.7831 26.4168 75.5677 25.4924 76.562 24.8467C79.3883 23.0035 83.1675 23.8102 85.0029 26.6483Z" fill="#230B59"/>
<path d="M64.1826 23.7735C64.2912 23.7135 64.3887 23.6596 64.4637 23.6012C65.6226 23.1167 65.1394 22.8714 64.2217 22.8257L62.6022 22.8284C62.4778 21.7405 62.6471 20.6391 63.0925 19.6398C64.4659 16.5455 68.0805 15.1541 71.1656 16.5318C74.2502 17.9093 75.6376 21.5344 74.2638 24.6287L65.6708 44.3875L63.0944 26.2612C62.8801 24.4927 63.6605 24.0618 64.1826 23.7735Z" fill="#230B59"/>
<path d="M52.9068 16.5439C49.8286 17.9201 48.4441 21.5421 49.8147 24.6336L58.3898 44.375L61.4142 23.1135C61.6033 21.9392 61.4464 20.735 60.9629 19.6493C59.5923 16.5579 55.9854 15.1676 52.9068 16.5439Z" fill="#230B59"/>
<path d="M32 57.5233C32 59.4652 33.5775 63 39.6012 63C45.1548 63 46.9088 60.4357 46.9088 59.2595H42.6093C42.6093 59.2595 42.4051 60.8133 39.9797 60.8133C37.5528 60.8133 36.8964 58.7747 36.8964 57.5957C36.8964 56.4215 37.5528 54.4931 39.9797 54.4931C42.4051 54.4931 42.6093 55.8458 42.6093 55.8458H46.9088C46.9088 54.6684 45.6219 52.1401 39.6012 52.1401C33.5775 52.1401 32 55.9045 32 57.5233Z" fill="#230B59"/>
<path d="M77.0912 57.5233C77.0912 59.4652 78.6703 63 84.6921 63C90.2452 63 92 60.4357 92 59.2595H87.7034C87.7034 59.2595 87.4985 60.8133 85.0724 60.8133C82.6451 60.8133 81.9882 58.7747 81.9882 57.5957C81.9882 56.4215 82.6451 54.4931 85.0724 54.4931C87.4985 54.4931 87.7034 55.8458 87.7034 55.8458H92C92 54.6684 90.7143 52.1401 84.6921 52.1401C78.6703 52.1401 77.0912 55.9045 77.0912 57.5233Z" fill="#230B59"/>
<path d="M58.6595 58.8952V52.3213H62.5187V62.7339H56.802L51.8858 56.0842V62.7339H48.027V52.3213H53.6558L58.6595 58.8952Z" fill="#230B59"/>
<path fill-rule="evenodd" clip-rule="evenodd" d="M74.1831 57.1981C74.8856 57.1981 76.3544 56.3775 76.3544 54.7877C76.3544 52.5238 72.1653 52.3213 71.5225 52.3213H63.8041V62.7339H71.5225C75.2347 62.7339 76.7261 61.5538 76.7261 59.5829C76.7261 57.6121 74.1831 57.1981 74.1831 57.1981ZM71.0249 60.2464V60.2601H67.8097V58.348H71.0249V58.3543C71.7118 58.3543 72.2666 58.7789 72.2666 59.3017C72.2666 59.8234 71.7118 60.2464 71.0249 60.2464ZM67.8393 54.3465H70.9374V54.3509C71.4625 54.3509 71.8879 54.6984 71.8879 55.1261C71.8879 55.5554 71.4625 55.9001 70.9374 55.9001V55.9048H67.8393V54.3465Z" fill="#230B59"/>
</svg>
