<svg width="200" height="145" viewBox="0 0 200 145" fill="none" xmlns="http://www.w3.org/2000/svg">
<g clip-path="url(#clip0)">
<path fill-rule="evenodd" clip-rule="evenodd" d="M20.3395 2.02344C20.4672 2.0278 20.5825 2.0361 20.6835 2.04872C20.9453 2.08136 20.9055 2.31626 20.8465 2.6677C19.383 11.3943 18.7352 20.7961 23.8928 25.2912C23.947 25.341 24.022 25.4456 23.9967 25.4845C23.9717 25.5233 23.8199 25.5024 23.7577 25.4985C21.2187 25.3408 10.9796 21.27 11.4143 3.80129C11.4212 3.52134 11.4586 3.39332 11.8731 3.27242C13.2591 2.86832 17.6405 2.08362 19.8536 2.02344H20.3395ZM3.97705 10.821C4.21868 10.6504 6.95834 9.30064 9.47703 8.40003C9.98137 8.2395 9.97814 8.76128 10.0022 8.89829C12.3555 22.3065 18.1072 23.9938 19.7248 25.3198C19.9423 25.4644 19.6637 25.5182 19.3878 25.5048C7.75831 25.5415 4.25655 14.8463 3.61278 11.34C3.5534 11.0167 3.73542 10.9914 3.97705 10.821ZM0.256255 19.3264C0.852336 18.5972 2.58689 17.1338 3.30884 16.655C3.52775 16.5099 3.68622 16.8449 3.8797 17.3013C4.65947 18.9733 5.82164 20.7325 6.96424 21.8905C9.24791 24.2047 11.7455 25.0883 11.8725 25.1917C12.0672 25.3506 12.0655 25.4766 11.6922 25.4904C3.79057 25.7839 0.561252 22.0456 0.0219091 19.8802C-0.0363513 19.6463 0.0149526 19.6215 0.256255 19.3264Z" fill="url(#paint0_linear)"/>
<path d="M42.5263 1.73877L39.056 15.6876L35.9145 1.73877H29.9236L35.8049 25.4634H41.1747L44.6815 11.5532L48.1518 25.4634H53.5216L59.4394 1.73877H53.5216L50.4166 15.6876L46.9829 1.73877H42.5263Z" fill="url(#paint1_linear)"/>
<path d="M68.0131 19.3972C67.6843 20.595 66.7711 21.136 65.6022 21.136C63.9583 21.136 62.9355 20.0155 62.7529 17.9289H73.3829V16.422C73.3829 11.2443 70.5336 7.68945 65.4926 7.68945C60.7438 7.68945 57.2369 11.3989 57.2369 16.7697C57.2369 22.1793 60.5611 25.85 65.6022 25.85C69.8761 25.85 72.7254 23.4157 73.3099 19.3972H68.0131ZM65.4926 12.4035C66.9172 12.4035 67.7574 13.4854 67.8305 14.915H62.8625C63.2278 13.2922 64.141 12.4035 65.4926 12.4035Z" fill="url(#paint2_linear)"/>
<path d="M89.6452 25.4632V14.7987C89.6452 10.2779 86.9786 7.65039 82.3028 7.65039C78.0654 7.65039 75.2526 10.3165 74.7778 13.6782H80.1841C80.4398 12.9054 81.0608 12.4031 82.1202 12.4031C83.5083 12.4031 84.1293 13.3691 84.1293 14.4896V15.6102C83.4718 15.1078 81.8645 14.6442 80.5129 14.6442C76.933 14.6442 74.1933 16.808 74.1933 20.1696C74.1933 23.8404 76.933 25.7723 80.1841 25.7723C81.9375 25.7723 83.5813 25.1541 84.1293 24.5745V25.4632H89.6452ZM84.1293 20.5946C83.764 21.2902 82.7777 21.7538 81.7183 21.7538C80.5859 21.7538 79.4535 21.2515 79.4535 20.0537C79.4535 18.8945 80.5859 18.3922 81.7183 18.3922C82.7777 18.3922 83.764 18.8559 84.1293 19.59V20.5946Z" fill="url(#paint3_linear)"/>
<path d="M96.9906 0.347656H91.2555V25.4633H96.9906V12.9055V0.347656Z" fill="url(#paint4_linear)"/>
<path d="M100.64 19.4741C100.64 23.879 102.832 25.811 106.704 25.811C107.982 25.811 109.224 25.5791 109.882 25.27V20.131C109.37 20.3628 108.676 20.5174 108.055 20.5174C106.923 20.5174 106.302 19.9378 106.302 18.5854V12.7895H109.736V8.07547H106.302V3.28418H100.64V8.07547H98.229V12.7895H100.64V19.4741Z" fill="url(#paint5_linear)"/>
<path d="M111.036 25.4633H116.771V14.9534C117.063 13.7556 118.013 13.06 119.145 13.06C120.606 13.06 121.3 14.1033 121.3 15.533V25.4633H126.999V14.0647C126.999 10.2007 124.844 7.68916 121.191 7.68916C119.291 7.68916 117.684 8.50059 116.771 9.58249V0.347656H111.036V25.4633Z" fill="url(#paint6_linear)"/>
<path d="M139.422 0.463675C138.728 0.193197 137.851 0 136.756 0C132.737 0 130.363 2.62749 130.363 6.80055V8.07565H127.916V12.7897H130.363V25.4634H136.025V12.7897H139.203V8.07565H136.025V7.1483C136.025 5.75728 136.792 5.06177 138.071 5.06177C138.582 5.06177 139.02 5.17769 139.422 5.40953V0.463675Z" fill="url(#paint7_linear)"/>
<path d="M151.356 7.99856C151.101 7.84401 150.516 7.68945 149.786 7.68945C148.142 7.68945 146.863 8.46224 146.06 9.62142V8.07584H140.325V25.4636H146.06V15.2628C146.352 14.0263 147.411 13.2922 148.982 13.2922C149.895 13.2922 150.662 13.4467 151.356 13.8331V7.99856Z" fill="url(#paint8_linear)"/>
<path d="M169.017 16.7697C169.017 11.3989 165.314 7.68945 160.309 7.68945C155.341 7.68945 151.908 11.3989 151.908 16.7697C151.908 22.1406 155.647 25.85 160.615 25.85C165.619 25.85 169.017 22.1406 169.017 16.7697ZM163.086 16.7697C163.086 19.1654 162.099 20.8269 160.309 20.8269C158.556 20.8269 157.57 19.1654 157.57 16.7697C157.57 14.3741 158.556 12.674 160.309 12.674C162.099 12.674 163.086 14.3741 163.086 16.7697Z" fill="url(#paint9_linear)"/>
<path d="M170.254 25.4636H175.989V14.9537C176.282 13.7559 177.231 13.0603 178.364 13.0603C179.825 13.0603 180.519 14.1036 180.519 15.5333V25.4636H186.218V14.065C186.218 10.201 184.062 7.68945 180.409 7.68945C178.51 7.68945 176.903 8.50088 175.989 9.58278V8.07584H170.254V25.4636Z" fill="url(#paint10_linear)"/>
<path d="M189.266 19.4741C189.266 23.879 191.458 25.811 195.33 25.811C196.609 25.811 197.851 25.5791 198.508 25.27V20.131C197.997 20.3628 197.303 20.5174 196.682 20.5174C195.549 20.5174 194.928 19.9378 194.928 18.5854V12.7895H198.362V8.07547H194.928V3.28418H189.266V8.07547H186.855V12.7895H189.266V19.4741Z" fill="url(#paint11_linear)"/>
</g>
<defs>
<linearGradient id="paint0_linear" x1="12.0009" y1="2.02344" x2="12.0009" y2="25.5076" gradientUnits="userSpaceOnUse">
<stop stop-color="#F7E9E2"/>
<stop offset="1" stop-color="#DADEF1"/>
</linearGradient>
<linearGradient id="paint1_linear" x1="114.216" y1="-1.0491e-05" x2="114.216" y2="25.8498" gradientUnits="userSpaceOnUse">
<stop stop-color="#F7E9E2"/>
<stop offset="1" stop-color="#DADEF1"/>
</linearGradient>
<linearGradient id="paint2_linear" x1="114.216" y1="0.000193422" x2="114.216" y2="25.85" gradientUnits="userSpaceOnUse">
<stop stop-color="#F7E9E2"/>
<stop offset="1" stop-color="#DADEF1"/>
</linearGradient>
<linearGradient id="paint3_linear" x1="114.216" y1="-0.000229426" x2="114.216" y2="25.8496" gradientUnits="userSpaceOnUse">
<stop stop-color="#F7E9E2"/>
<stop offset="1" stop-color="#DADEF1"/>
</linearGradient>
<linearGradient id="paint4_linear" x1="114.216" y1="-9.87408e-05" x2="114.216" y2="25.8497" gradientUnits="userSpaceOnUse">
<stop stop-color="#F7E9E2"/>
<stop offset="1" stop-color="#DADEF1"/>
</linearGradient>
<linearGradient id="paint5_linear" x1="114.216" y1="-0.000180165" x2="114.216" y2="25.8496" gradientUnits="userSpaceOnUse">
<stop stop-color="#F7E9E2"/>
<stop offset="1" stop-color="#DADEF1"/>
</linearGradient>
<linearGradient id="paint6_linear" x1="114.216" y1="-9.87408e-05" x2="114.216" y2="25.8497" gradientUnits="userSpaceOnUse">
<stop stop-color="#F7E9E2"/>
<stop offset="1" stop-color="#DADEF1"/>
</linearGradient>
<linearGradient id="paint7_linear" x1="114.216" y1="0" x2="114.216" y2="25.8498" gradientUnits="userSpaceOnUse">
<stop stop-color="#F7E9E2"/>
<stop offset="1" stop-color="#DADEF1"/>
</linearGradient>
<linearGradient id="paint8_linear" x1="114.216" y1="0.000193518" x2="114.216" y2="25.85" gradientUnits="userSpaceOnUse">
<stop stop-color="#F7E9E2"/>
<stop offset="1" stop-color="#DADEF1"/>
</linearGradient>
<linearGradient id="paint9_linear" x1="114.216" y1="0.000193422" x2="114.216" y2="25.85" gradientUnits="userSpaceOnUse">
<stop stop-color="#F7E9E2"/>
<stop offset="1" stop-color="#DADEF1"/>
</linearGradient>
<linearGradient id="paint10_linear" x1="114.216" y1="0.000193518" x2="114.216" y2="25.85" gradientUnits="userSpaceOnUse">
<stop stop-color="#F7E9E2"/>
<stop offset="1" stop-color="#DADEF1"/>
</linearGradient>
<linearGradient id="paint11_linear" x1="114.216" y1="-0.000180165" x2="114.216" y2="25.8496" gradientUnits="userSpaceOnUse">
<stop stop-color="#F7E9E2"/>
<stop offset="1" stop-color="#DADEF1"/>
</linearGradient>
<clipPath id="clip0">
<rect width="200" height="26" fill="white"/>
</clipPath>
</defs>
</svg>
