<svg width="136" height="21" viewBox="0 0 136 21" fill="none" xmlns="http://www.w3.org/2000/svg">
<path d="M9.48953 5.98213L10.9543 6.9077L10.3944 12.2L18.2762 7.39359C18.0983 5.97454 17.5581 4.62518 16.7076 3.4754C15.8571 2.32562 14.7249 1.41415 13.4201 0.828709C12.1152 0.243271 10.6817 0.00358862 9.25735 0.132734C7.83304 0.261879 6.46595 0.755503 5.28769 1.56609C3.87039 2.5413 2.78978 3.93139 2.19427 5.54543C1.59875 7.15947 1.51755 8.91829 1.96181 10.5803L9.48953 5.98213Z" fill="#230B59"/>
<path d="M9.73023 14.8706L8.26548 13.9448L8.8254 8.65491L2.66058 12.4176C3.48416 13.9803 4.78313 15.2408 6.36989 16.017C7.95666 16.7932 9.74907 17.0449 11.4883 16.7359C13.2275 16.4268 14.8234 15.5729 16.0456 14.2976C17.2678 13.0222 18.053 11.3914 18.2877 9.64059L9.73023 14.8706Z" fill="#230B59"/>
<path d="M10.4637 5.2206C10.776 5.2206 11.0756 5.09651 11.2965 4.87562C11.5174 4.65474 11.6415 4.35515 11.6415 4.04277C11.6415 3.73038 11.5174 3.4308 11.2965 3.20991C11.0756 2.98902 10.776 2.86493 10.4637 2.86493C10.1513 2.86493 9.8517 2.98902 9.63081 3.20991C9.40992 3.4308 9.28583 3.73038 9.28583 4.04277C9.28583 4.35515 9.40992 4.65474 9.63081 4.87562C9.8517 5.09651 10.1513 5.2206 10.4637 5.2206Z" fill="white"/>
<path d="M22.5179 16.2104L24.5864 16.1803V1.5598L22.5179 1.58999V16.2104ZM32.4129 6.0517C31.4873 6.0517 29.9115 6.4633 29.2125 7.58102V6.2596H27.2594V16.2104H29.2125V10.8255C29.2125 8.86307 30.6935 7.9837 32.1609 7.9837C33.5492 7.9837 34.4748 9.02503 34.4748 10.5733V16.2104H36.4257V10.469C36.4257 9.05522 36.0369 7.89812 35.2686 7.12532C34.5743 6.42182 33.5862 6.0517 32.4129 6.0517ZM42.2989 13.6511L39.3114 6.26196H37.2216L41.3547 16.2104H43.2244L47.3782 6.26196H45.2677L42.2989 13.6511ZM78.7483 6.0517C75.7401 6.0517 73.5532 8.21732 73.5532 11.2051C73.5532 14.1923 75.7886 16.421 78.7483 16.421C79.7876 16.4474 80.81 16.155 81.6782 15.5831C82.5463 15.0111 83.2185 14.187 83.6043 13.2216C83.8605 12.581 83.9838 11.8949 83.9665 11.2051C83.9665 8.21759 81.782 6.05143 78.7483 6.05143V6.0517ZM78.7483 14.5743C76.9226 14.5743 75.534 13.1258 75.534 11.2051C75.534 9.31904 76.9226 7.89812 78.7551 7.89812C79.1888 7.89199 79.6193 7.9737 80.0206 8.13835C80.4219 8.30299 80.7857 8.54715 81.0902 8.85612C81.3946 9.1651 81.6334 9.5325 81.7921 9.93619C81.9507 10.3399 82.0261 10.7715 82.0135 11.2051C82.0135 13.1258 80.6089 14.5743 78.7483 14.5743ZM90.7099 6.05143C89.2682 6.05143 87.9492 6.67881 87.2782 7.67132V6.2596H85.325V20.9869H87.2782V14.8218C87.9445 15.824 89.215 16.4141 90.7306 16.4141C93.6071 16.4141 95.6945 14.2388 95.6945 11.2397C95.6945 8.24068 93.5979 6.05143 90.7099 6.05143ZM90.5411 14.5743C90.1086 14.5756 89.6801 14.4906 89.2808 14.3243C88.8815 14.158 88.5193 13.9138 88.2155 13.6059C87.9117 13.298 87.6723 12.9326 87.5114 12.5311C87.3504 12.1296 87.2712 11.7001 87.2782 11.2676C87.2782 9.34686 88.6805 7.89812 90.5411 7.89812C92.3251 7.89812 93.7205 9.37915 93.7205 11.2676C93.7205 13.1557 92.3529 14.5743 90.5411 14.5743ZM116.066 7.64822C115.399 6.64626 114.129 6.05616 112.613 6.05616C109.736 6.05616 107.649 8.2315 107.649 11.2303C107.649 14.2296 109.746 16.4257 112.634 16.4257C114.076 16.4257 115.395 15.7983 116.066 14.8058V16.2102H118.019V0.895935H116.066V7.64848V7.64822ZM112.791 14.574C111.018 14.574 109.632 13.093 109.632 11.2048C109.632 9.31641 110.981 7.89786 112.791 7.89786C113.225 7.89503 113.655 7.9788 114.056 8.14428C114.458 8.30976 114.822 8.55362 115.128 8.86158C115.433 9.16954 115.675 9.53541 115.837 9.93777C116 10.3401 116.081 10.7709 116.075 11.2048C116.066 12.8384 114.916 14.574 112.791 14.574ZM120.49 6.2617H122.443V16.2102H120.49V6.26196V6.2617ZM134.389 6.25933H132.436V7.41643C131.741 6.55097 130.545 6.04645 129.147 6.04645H128.99C126.114 6.04645 124.026 8.22178 124.026 11.2208C124.026 14.2199 126.123 16.416 129.011 16.416H129.175C130.506 16.416 131.734 15.8792 132.442 15.0276V16.2102H134.544V6.25986H134.389V6.25933ZM129.235 14.5672C127.502 14.5207 126.157 13.0631 126.157 11.2025C126.157 9.34187 127.476 7.94196 129.235 7.90022C131.029 7.93172 132.46 9.40802 132.436 11.2025C132.436 12.8153 131.304 14.5231 129.235 14.5696V14.5669V14.5672ZM62.4176 10.1288C61.397 9.8674 60.6752 9.63377 60.6752 8.99747C60.6752 8.28216 61.397 7.78236 62.4339 7.78236C63.1858 7.79749 63.9119 8.05934 64.5003 8.5276L64.5489 8.56435L65.5973 7.11141L65.5508 7.0744C64.6269 6.35483 63.4821 5.97782 62.3113 6.0076C60.5502 6.0076 58.655 6.97701 58.655 9.10142C58.655 10.5824 59.8906 11.3046 60.9251 11.6469C61.2721 11.7626 61.6194 11.8529 61.9711 11.9409C63.0518 12.2186 63.9866 12.4593 63.9866 13.3017C63.9866 13.8915 63.3918 14.5165 62.2903 14.5165C61.2467 14.4876 60.2416 14.1159 59.4301 13.4589L59.3792 13.4219L58.3331 14.9168L58.3772 14.9515C59.5011 15.8433 60.8999 16.317 62.3344 16.2913C64.1163 16.2913 66.0115 15.2292 66.0115 13.2599C66.0115 11.2907 64.1948 10.5848 62.4176 10.1288ZM106.379 11.066C106.379 8.0971 104.46 6.02833 101.683 6.02833C98.8765 6.02833 96.8401 8.15038 96.8401 11.071C96.8211 11.7706 96.9425 12.4669 97.1973 13.1187C97.4521 13.7705 97.835 14.3647 98.3235 14.8659C99.1977 15.7173 100.373 16.1888 101.593 16.1779H101.686C103.405 16.148 104.527 15.8632 105.891 14.3916L105.932 14.3475L104.578 13.0586L104.537 13.1048C104.194 13.5067 103.767 13.8277 103.286 14.0446C102.804 14.2614 102.281 14.3688 101.753 14.359C100.244 14.359 99.0545 13.2529 98.7747 11.5983L106.312 11.5823H106.367V11.5267C106.375 11.4365 106.375 11.3459 106.367 11.2558C106.381 11.219 106.379 11.1681 106.379 11.0662V11.066ZM99.0731 10.0619C99.3299 8.62472 100.272 7.83328 101.732 7.83328C103.146 7.83328 104.109 8.6641 104.322 10.0619H99.0731ZM57.2527 11.0662C57.2527 8.09736 55.3202 6.02833 52.5618 6.02833C49.7549 6.02833 47.7184 8.15038 47.7184 11.071C47.6997 11.7706 47.8214 12.4668 48.0762 13.1187C48.3309 13.7705 48.7137 14.3647 49.2018 14.8662C50.0762 15.7173 51.2513 16.1888 52.4715 16.1779H52.5618C54.2836 16.148 55.406 15.8632 56.7689 14.3916L56.8106 14.3475L55.4569 13.0586L55.4152 13.1048C55.0721 13.5078 54.6437 13.8293 54.161 14.0463C53.6783 14.2632 53.1534 14.37 52.6243 14.359C51.1133 14.359 49.9261 13.2529 49.6462 11.5983L57.1808 11.5823H57.2388V11.5267C57.2448 11.4365 57.2448 11.346 57.2388 11.2558C57.2527 11.219 57.2527 11.1681 57.2527 11.0662ZM49.94 10.0616C50.1991 8.62446 51.1409 7.83302 52.6012 7.83302C54.015 7.83302 54.9779 8.66383 55.1908 10.0616H49.94ZM72.41 14.1435C72.1415 14.2154 71.8641 14.249 71.5862 14.2433C71.3635 14.2535 71.141 14.2177 70.9328 14.138C70.7245 14.0583 70.5349 13.9365 70.3759 13.7802C70.163 13.5303 70.1191 13.1463 70.1191 12.6488V7.9606H72.8959V6.2596H70.1191V3.03872H68.1635V6.2596H67.0899V7.9606H68.1635V12.5473C68.1635 13.6511 68.409 14.4632 68.9135 15.0279C69.2426 15.3914 69.6477 15.6781 70.1 15.8676C70.5522 16.0572 71.0406 16.145 71.5306 16.1249C72.0213 16.1295 72.5101 16.0625 72.9814 15.9259L73.0394 15.9073L72.4677 14.1275L72.41 14.1438V14.1435ZM121.467 1.49496C121.301 1.49465 121.136 1.52746 120.983 1.59146C120.83 1.65546 120.691 1.74936 120.575 1.86768C120.459 1.98599 120.367 2.12634 120.306 2.2805C120.244 2.43465 120.214 2.59953 120.217 2.76546C120.215 2.93022 120.245 3.09379 120.307 3.2465C120.369 3.3992 120.461 3.53795 120.577 3.65455C120.694 3.77106 120.833 3.863 120.986 3.92491C121.138 3.98682 121.302 4.01744 121.467 4.01496C121.633 4.01856 121.798 3.9889 121.953 3.92773C122.108 3.86656 122.249 3.77511 122.367 3.65875C122.486 3.54236 122.581 3.40336 122.645 3.24994C122.709 3.09653 122.742 2.9318 122.742 2.76546C122.742 2.59803 122.71 2.43213 122.646 2.27736C122.582 2.12259 122.488 1.98204 122.37 1.86386C122.251 1.74568 122.11 1.65222 121.955 1.58889C121.8 1.52557 121.634 1.49364 121.467 1.49496Z" fill="#230B59"/>
</svg>
