<svg width="21" height="21" viewBox="0 0 21 21" fill="none" xmlns="http://www.w3.org/2000/svg">
<path d="M10.492 0.246948H10.491C4.83176 0.246948 0.244019 4.83469 0.244019 10.4939V10.4949C0.244019 16.1542 4.83176 20.7419 10.491 20.7419H10.492C16.1513 20.7419 20.739 16.1542 20.739 10.4949V10.4939C20.739 4.83469 16.1513 0.246948 10.492 0.246948Z" fill="#371B1B"/>
<mask id="mask0" mask-type="alpha" maskUnits="userSpaceOnUse" x="0" y="0" width="21" height="21">
<path d="M16.299 0.246948H4.68402C2.23187 0.246948 0.244019 2.2348 0.244019 4.68695V16.3019C0.244019 18.7541 2.23187 20.7419 4.68402 20.7419H16.299C18.7512 20.7419 20.739 18.7541 20.739 16.3019V4.68695C20.739 2.2348 18.7512 0.246948 16.299 0.246948Z" fill="white"/>
</mask>
<g mask="url(#mask0)">
<path d="M16.302 0.246948H4.68102C2.23053 0.246948 0.244019 2.23346 0.244019 4.68395V16.3049C0.244019 18.7554 2.23053 20.7419 4.68102 20.7419H16.302C18.7525 20.7419 20.739 18.7554 20.739 16.3049V4.68395C20.739 2.23346 18.7525 0.246948 16.302 0.246948Z" fill="#4840BB"/>
<path fill-rule="evenodd" clip-rule="evenodd" d="M16.132 15.5669V15.5349C16.1183 15.515 16.1014 15.4974 16.082 15.4829C13.621 13.5299 13.931 9.44395 14.63 5.65195C14.658 5.49895 14.677 5.39695 14.552 5.38195C13.757 5.29195 11.107 5.71295 10.346 5.91495C10.148 5.96795 10.131 6.02395 10.127 6.14495C9.91899 13.7369 14.715 15.3259 16.017 15.5729C16.047 15.5789 16.113 15.5859 16.132 15.5669ZM9.20799 8.27695C8.23199 8.46195 7.32799 8.82295 6.54599 9.14695C6.47699 9.16695 6.36699 9.28095 6.39599 9.42195C6.70399 10.9559 8.20799 15.2799 13.959 15.6169C14.092 15.6229 14.225 15.5989 14.121 15.5369C13.345 14.9569 10.587 14.3599 9.45999 8.49495C9.44799 8.43495 9.44999 8.20695 9.20799 8.27695ZM6.44799 11.8769C6.10599 12.0779 5.22199 12.6419 4.90499 12.9329C4.84299 12.9899 4.85499 13.0309 4.88199 13.1289C5.13799 14.0369 6.64799 15.6289 10.398 15.5049C10.575 15.4989 10.576 15.4459 10.483 15.3799C10.423 15.3359 9.23799 14.9659 8.15399 13.9959C7.61199 13.5099 7.06099 12.7729 6.69099 12.0719C6.59899 11.8799 6.55199 11.8159 6.44799 11.8769Z" fill="white"/>
</g>
<mask id="mask1" mask-type="alpha" maskUnits="userSpaceOnUse" x="4" y="5" width="13" height="11">
<path fill-rule="evenodd" clip-rule="evenodd" d="M16.132 15.5669V15.5349C16.1183 15.515 16.1014 15.4974 16.082 15.4829C13.621 13.5299 13.931 9.44395 14.63 5.65195C14.658 5.49895 14.677 5.39695 14.552 5.38195C13.757 5.29195 11.107 5.71295 10.346 5.91495C10.148 5.96795 10.131 6.02395 10.127 6.14495C9.91899 13.7369 14.715 15.3259 16.017 15.5729C16.047 15.5789 16.113 15.5859 16.132 15.5669ZM9.20799 8.27695C8.23199 8.46195 7.32799 8.82295 6.54599 9.14695C6.47699 9.16695 6.36699 9.28095 6.39599 9.42195C6.70399 10.9559 8.20799 15.2799 13.959 15.6169C14.092 15.6229 14.225 15.5989 14.121 15.5369C13.345 14.9569 10.587 14.3599 9.45999 8.49495C9.44799 8.43495 9.44999 8.20695 9.20799 8.27695ZM6.44799 11.8769C6.10599 12.0779 5.22199 12.6419 4.90499 12.9329C4.84299 12.9899 4.85499 13.0309 4.88199 13.1289C5.13799 14.0369 6.64799 15.6289 10.398 15.5049C10.575 15.4989 10.576 15.4459 10.483 15.3799C10.423 15.3359 9.23799 14.9659 8.15399 13.9959C7.61199 13.5099 7.06099 12.7729 6.69099 12.0719C6.59899 11.8799 6.55199 11.8159 6.44799 11.8769Z" fill="white"/>
</mask>
<g mask="url(#mask1)">
</g>
</svg>
