<svg width="133" height="21" viewBox="0 0 133 21" fill="none" xmlns="http://www.w3.org/2000/svg">
<g clip-path="url(#clip0)">
<path fill-rule="evenodd" clip-rule="evenodd" d="M14.242 0H20.232C20.494 0 20.694 0.203 20.679 0.453V20.563C20.679 20.813 20.479 21.016 20.232 21.016H14.058C13.9835 21.0155 13.91 20.9994 13.842 20.969C13.834 20.969 13.827 20.965 13.819 20.961C13.811 20.957 13.804 20.953 13.796 20.953C13.7275 20.9224 13.6649 20.8801 13.611 20.828L6.898 14.016V20.546C6.898 20.796 6.698 21 6.451 21H0.461C0.33977 20.996 0.224629 20.9459 0.139 20.86C0.0933751 20.8183 0.0573254 20.7672 0.0333304 20.7102C0.00933534 20.6533 -0.00203552 20.5918 -1.06345e-07 20.53V0.453C-1.06345e-07 0.203 0.2 0 0.447 0H6.637C6.713 0 6.79 0.016 6.852 0.047C6.859 0.047 6.867 0.051 6.875 0.055C6.883 0.059 6.89 0.062 6.898 0.062C6.96 0.094 7.021 0.125 7.083 0.188L13.796 6.984V0.454C13.796 0.204 13.996 0 14.242 0ZM65.407 3.203H68.147C68.301 3.203 68.44 3.343 68.44 3.5V17.156C68.4403 17.1947 68.4329 17.2332 68.4183 17.269C68.4037 17.3049 68.3822 17.3376 68.355 17.3652C68.3278 17.3928 68.2954 17.4147 68.2597 17.4298C68.224 17.4448 68.1857 17.4527 68.147 17.453H66.1C66.0136 17.4562 65.9286 17.4302 65.8588 17.3792C65.7889 17.3283 65.7383 17.2553 65.715 17.172L65.499 16.5C65.191 16.78 64.806 17.03 64.329 17.28C63.775 17.562 63.097 17.718 62.312 17.734C62.22 17.75 62.127 17.75 62.035 17.75C61.265 17.75 60.603 17.593 60.002 17.297C59.4192 17.0074 58.9048 16.5969 58.493 16.093C58.0727 15.5799 57.7541 14.9914 57.554 14.359C57.3382 13.6927 57.2292 12.9964 57.231 12.296C57.231 11.578 57.354 10.906 57.57 10.25C57.7815 9.62373 58.1047 9.04098 58.524 8.53C58.924 8.03 59.433 7.64 60.018 7.359C60.603 7.062 61.265 6.921 61.988 6.921C62.728 6.921 63.359 7.078 63.868 7.359C64.391 7.64 64.791 7.953 65.068 8.296H65.114V3.5C65.114 3.328 65.253 3.203 65.407 3.203ZM61.034 14.109C61.234 14.359 61.496 14.547 61.789 14.703C62.096 14.859 62.435 14.937 62.82 14.937C63.205 14.937 63.544 14.875 63.836 14.718C64.129 14.578 64.376 14.375 64.591 14.125C64.8076 13.8777 64.9749 13.5912 65.084 13.281C65.191 12.968 65.253 12.641 65.253 12.312C65.253 11.984 65.191 11.656 65.083 11.343C64.9681 11.0361 64.8017 10.751 64.591 10.5C64.391 10.25 64.129 10.062 63.836 9.906C63.5177 9.75873 63.1707 9.68393 62.82 9.687C62.435 9.687 62.081 9.75 61.788 9.906C61.481 10.046 61.234 10.25 61.034 10.484C60.819 10.718 60.68 11 60.572 11.312C60.464 11.625 60.418 11.952 60.418 12.281C60.418 12.609 60.464 12.921 60.572 13.25C60.68 13.578 60.834 13.859 61.034 14.109ZM127.057 7.312H124.979L124.717 4.968C124.706 4.86925 124.66 4.77789 124.586 4.71145C124.512 4.64501 124.416 4.60817 124.317 4.608H122.007C121.968 4.60826 121.93 4.61618 121.894 4.63131C121.858 4.64644 121.826 4.66848 121.799 4.69617C121.771 4.72385 121.75 4.75664 121.735 4.79265C121.721 4.82866 121.714 4.86718 121.714 4.906V7.296L121.73 14.125C121.73 14.671 121.791 15.171 121.915 15.625C122.038 16.078 122.238 16.453 122.515 16.781C122.792 17.109 123.162 17.359 123.624 17.515C124.086 17.687 124.655 17.765 125.317 17.765C125.672 17.765 126.026 17.734 126.364 17.671C126.611 17.625 126.842 17.578 127.026 17.531C127.087 17.5133 127.141 17.4765 127.18 17.426C127.219 17.3754 127.241 17.3137 127.242 17.25L127.211 15.39C127.211 15.203 127.042 15.078 126.857 15.109C126.839 15.11 126.821 15.1127 126.803 15.117C126.613 15.1533 126.42 15.1718 126.226 15.172C125.748 15.172 125.425 15.046 125.24 14.812C125.056 14.578 124.963 14.202 124.963 13.734V9.812H127.042C127.081 9.81174 127.119 9.80384 127.155 9.78876C127.19 9.77368 127.223 9.75172 127.25 9.72412C127.277 9.69653 127.298 9.66385 127.313 9.62797C127.327 9.59208 127.334 9.55369 127.334 9.515V7.61C127.337 7.57184 127.333 7.53341 127.32 7.49718C127.308 7.46096 127.288 7.42776 127.262 7.39975C127.236 7.37174 127.204 7.34954 127.169 7.33459C127.133 7.31965 127.095 7.31229 127.057 7.313V7.312ZM36.877 8.25C36.5712 7.85263 36.1821 7.52701 35.737 7.296C35.275 7.062 34.721 6.937 34.074 6.921H33.905C33.15 6.937 32.519 7.078 31.98 7.343C31.503 7.593 31.102 7.859 30.81 8.14L30.61 7.484C30.5867 7.40073 30.5361 7.32773 30.4662 7.27676C30.3964 7.22578 30.3114 7.1998 30.225 7.203H28.007C27.9683 7.20326 27.93 7.21116 27.8944 7.22624C27.8588 7.24132 27.8265 7.26328 27.7993 7.29088C27.7722 7.31847 27.7508 7.35114 27.7363 7.38703C27.7218 7.42292 27.7146 7.46131 27.715 7.5V17.14C27.715 17.297 27.838 17.437 28.007 17.437H30.763C30.8017 17.4367 30.8401 17.4288 30.8757 17.4138C30.9114 17.3987 30.9438 17.3768 30.971 17.3492C30.9982 17.3216 31.0197 17.2889 31.0343 17.253C31.0489 17.2172 31.0563 17.1787 31.056 17.14V11.89C31.056 11.609 31.086 11.328 31.164 11.062C31.241 10.797 31.349 10.562 31.503 10.359C31.657 10.156 31.841 9.999 32.057 9.875C32.272 9.765 32.534 9.703 32.842 9.703C33.15 9.703 33.382 9.765 33.582 9.875C33.782 9.984 33.935 10.155 34.043 10.343C34.151 10.547 34.228 10.765 34.274 11.031C34.32 11.296 34.351 11.562 34.351 11.859V17.156C34.351 17.312 34.474 17.453 34.644 17.453H37.4C37.4781 17.4522 37.5526 17.4205 37.6074 17.3648C37.6621 17.3092 37.6925 17.2341 37.692 17.156V11.109C37.692 10.609 37.631 10.093 37.508 9.593C37.368 9.093 37.168 8.64 36.876 8.25H36.877ZM86.332 7.203H83.514C83.4506 7.205 83.3895 7.22723 83.3397 7.26646C83.2898 7.30569 83.2538 7.35985 83.237 7.421L81.528 13.671H81.482L79.68 7.406C79.6633 7.34466 79.6274 7.29028 79.5776 7.25086C79.5277 7.21144 79.4665 7.18906 79.403 7.187H76.493C76.4295 7.18906 76.3683 7.21144 76.3184 7.25086C76.2686 7.29028 76.2327 7.34466 76.216 7.406L74.476 13.671H74.415L72.736 7.421C72.7192 7.35985 72.6832 7.30569 72.6333 7.26646C72.5835 7.22723 72.5224 7.205 72.459 7.203H69.503C69.303 7.203 69.164 7.406 69.226 7.593L72.506 17.233C72.5251 17.2915 72.5619 17.3425 72.6114 17.3791C72.6609 17.4156 72.7205 17.4359 72.782 17.437H75.708C75.831 17.437 75.954 17.359 75.985 17.234L77.864 11.078H77.91L79.834 17.25C79.865 17.375 79.988 17.453 80.112 17.453H83.037C83.0985 17.4522 83.1583 17.4322 83.2079 17.3958C83.2576 17.3594 83.2947 17.3084 83.314 17.25L86.609 7.609C86.671 7.406 86.532 7.203 86.332 7.203ZM100.251 3.203H103.053C103.207 3.203 103.331 3.343 103.346 3.5V17.14C103.346 17.1787 103.339 17.2172 103.324 17.253C103.31 17.2889 103.288 17.3216 103.261 17.3492C103.234 17.3768 103.201 17.3987 103.166 17.4138C103.13 17.4288 103.092 17.4367 103.053 17.437H100.251C100.173 17.4362 100.098 17.4045 100.044 17.3488C99.9889 17.2932 99.9585 17.2181 99.959 17.14V3.5C99.959 3.328 100.097 3.203 100.251 3.203ZM108.596 3.203H105.794C105.755 3.20326 105.717 3.21116 105.681 3.22624C105.646 3.24132 105.613 3.26328 105.586 3.29088C105.559 3.31847 105.538 3.35114 105.523 3.38703C105.509 3.42292 105.502 3.46131 105.502 3.5V17.14C105.502 17.297 105.625 17.437 105.794 17.437H108.596C108.635 17.4367 108.673 17.4288 108.709 17.4138C108.744 17.3987 108.777 17.3768 108.804 17.3492C108.831 17.3216 108.853 17.2889 108.867 17.253C108.882 17.2172 108.889 17.1787 108.889 17.14V3.5C108.887 3.42261 108.855 3.34894 108.801 3.29383C108.747 3.23871 108.673 3.20626 108.596 3.203ZM95.231 6.859H97.541C97.695 6.859 97.818 6.984 97.818 7.14V17.14C97.8184 17.1788 97.8111 17.2172 97.7966 17.2532C97.782 17.2892 97.7605 17.3219 97.7333 17.3495C97.7061 17.3771 97.6736 17.399 97.6379 17.414C97.6021 17.4291 97.5638 17.4369 97.525 17.437H95.478C95.3916 17.4402 95.3066 17.4142 95.2368 17.3632C95.1669 17.3123 95.1163 17.2393 95.093 17.156L94.846 16.375C94.523 16.703 94.092 17 93.553 17.281C93.091 17.515 92.553 17.656 91.936 17.703C91.766 17.718 91.597 17.733 91.428 17.733C90.658 17.733 89.996 17.578 89.396 17.281C88.813 16.9918 88.2982 16.5817 87.886 16.078C87.466 15.5644 87.1477 14.9756 86.948 14.343C86.7319 13.6771 86.6226 12.9811 86.624 12.281C86.624 11.562 86.747 10.891 86.963 10.234C87.1749 9.60802 87.4984 9.02561 87.918 8.515C88.318 8.015 88.826 7.625 89.411 7.343C89.996 7.046 90.658 6.906 91.381 6.906C92.213 6.906 92.906 7.062 93.476 7.343C93.922 7.562 94.276 7.812 94.569 8.062L94.846 7.14C94.8739 7.05951 94.9257 6.98947 94.9945 6.93925C95.0633 6.88903 95.1458 6.86103 95.231 6.859ZM89.965 13.249C90.073 13.578 90.227 13.859 90.427 14.109C90.627 14.359 90.889 14.562 91.182 14.719C91.474 14.859 91.828 14.937 92.213 14.937C92.598 14.937 92.937 14.874 93.23 14.718C93.522 14.578 93.768 14.374 93.984 14.124C94.2 13.874 94.369 13.594 94.477 13.281C94.585 12.968 94.647 12.641 94.647 12.312C94.647 11.984 94.584 11.656 94.477 11.343C94.362 11.0356 94.1953 10.7502 93.984 10.499C93.784 10.249 93.522 10.062 93.23 9.906C92.9114 9.75858 92.564 9.68378 92.213 9.687C91.828 9.687 91.474 9.75 91.182 9.906C90.874 10.046 90.627 10.249 90.427 10.484C90.212 10.718 90.073 10.999 89.965 11.312C89.858 11.625 89.811 11.952 89.811 12.281C89.811 12.609 89.858 12.921 89.965 13.249ZM56.877 6.953H56.847L56.877 6.921H56.43C56 6.921 55.599 7 55.23 7.171C55.075 7.218 54.937 7.281 54.798 7.359C54.259 7.625 53.844 7.921 53.536 8.249L53.336 7.531C53.3137 7.44591 53.2638 7.37061 53.1941 7.31687C53.1245 7.26314 53.039 7.23399 52.951 7.234H50.749C50.7102 7.23413 50.6719 7.24193 50.6361 7.25695C50.6003 7.27197 50.5679 7.29392 50.5407 7.32152C50.5135 7.34913 50.492 7.38185 50.4774 7.4178C50.4629 7.45375 50.4556 7.49222 50.456 7.531V17.156C50.456 17.312 50.579 17.453 50.749 17.453H53.489C53.5278 17.4529 53.5661 17.4451 53.6019 17.43C53.6377 17.415 53.6701 17.3931 53.6973 17.3655C53.7245 17.3379 53.746 17.3052 53.7606 17.2692C53.7751 17.2332 53.7824 17.1948 53.782 17.156V12.203C53.782 12 53.828 11.765 53.905 11.484C53.982 11.218 54.121 10.953 54.305 10.718C54.49 10.484 54.737 10.281 55.029 10.125C55.337 9.968 55.707 9.875 56.153 9.875C56.292 9.875 56.43 9.875 56.569 9.89L56.708 9.906C56.7855 9.91096 56.8621 9.88624 56.9221 9.83684C56.9821 9.78744 57.021 9.71706 57.031 9.64L57.139 7.265C57.1431 7.22716 57.1396 7.18887 57.1285 7.15244C57.1174 7.11602 57.0991 7.08221 57.0746 7.05306C57.0501 7.0239 57.02 7.00001 56.986 6.98281C56.9521 6.96562 56.915 6.95548 56.877 6.953ZM46.299 7.266C46.9074 7.50648 47.4544 7.87992 47.9 8.359C48.3512 8.86381 48.697 9.45369 48.917 10.094C49.163 10.781 49.286 11.563 49.286 12.438V12.844C49.286 12.984 49.286 13.109 49.271 13.234H41.957C41.972 13.516 42.065 13.781 42.203 14.016C42.3545 14.2472 42.5418 14.4528 42.758 14.625C42.988 14.797 43.235 14.938 43.512 15.031C43.789 15.125 44.082 15.171 44.374 15.171C44.898 15.171 45.344 15.078 45.714 14.875C45.976 14.735 46.207 14.562 46.391 14.359C46.514 14.219 46.731 14.219 46.869 14.359L48.301 15.829C48.439 15.969 48.439 16.187 48.301 16.329C47.946 16.687 47.531 16.969 47.053 17.203C46.268 17.578 45.375 17.766 44.343 17.766C43.6145 17.7671 42.891 17.6454 42.203 17.406C41.5491 17.1786 40.9473 16.8226 40.433 16.359C39.9173 15.8822 39.508 15.3018 39.232 14.656C38.939 13.984 38.801 13.219 38.801 12.359C38.801 11.531 38.955 10.766 39.231 10.094C39.4903 9.44587 39.8839 8.86001 40.386 8.375C40.8854 7.90293 41.4711 7.53149 42.111 7.281C42.7925 7.01415 43.5192 6.88172 44.251 6.891C44.991 6.891 45.683 7.016 46.299 7.266ZM42.172 10.406C42.0519 10.6386 41.9836 10.8945 41.972 11.156H46.252C46.252 10.625 46.083 10.172 45.76 9.781C45.421 9.391 44.929 9.203 44.267 9.203C43.6801 9.19232 43.1099 9.39807 42.665 9.781C42.4592 9.95271 42.2916 10.1656 42.173 10.406H42.172ZM119.236 8.359C118.791 7.87976 118.244 7.5063 117.635 7.266C116.983 7.01024 116.287 6.8829 115.587 6.891C114.855 6.88167 114.128 7.0141 113.447 7.281C112.807 7.53161 112.221 7.90303 111.722 8.375C111.22 8.86046 110.827 9.4462 110.567 10.094C110.277 10.8136 110.13 11.5831 110.136 12.359C110.136 13.219 110.275 13.984 110.567 14.656C110.843 15.3017 111.252 15.882 111.768 16.359C112.283 16.8224 112.885 17.1783 113.539 17.406C114.217 17.641 114.925 17.766 115.679 17.766C116.711 17.766 117.604 17.578 118.389 17.203C118.851 16.9845 119.273 16.6886 119.636 16.328C119.669 16.2953 119.695 16.2563 119.713 16.2134C119.731 16.1705 119.74 16.1245 119.74 16.078C119.74 16.0315 119.731 15.9855 119.713 15.9426C119.695 15.8997 119.669 15.8607 119.636 15.828L118.204 14.359C118.066 14.219 117.85 14.219 117.727 14.359C117.532 14.5679 117.303 14.7423 117.05 14.875C116.68 15.078 116.234 15.172 115.71 15.172C115.418 15.172 115.125 15.125 114.848 15.032C114.576 14.9371 114.322 14.7997 114.093 14.625C113.877 14.4523 113.69 14.2464 113.539 14.015C113.396 13.7785 113.311 13.511 113.293 13.235H120.606C120.622 13.109 120.622 12.985 120.622 12.844V12.438C120.622 11.562 120.499 10.781 120.252 10.094C120.039 9.45092 119.692 8.85984 119.236 8.359ZM113.324 11.156C113.339 10.891 113.401 10.641 113.524 10.406C113.647 10.172 113.801 9.953 114.016 9.781C114.461 9.39774 115.031 9.19194 115.618 9.203C116.28 9.203 116.773 9.391 117.111 9.781C117.435 10.171 117.604 10.625 117.604 11.156H113.324ZM131.923 15.688H132.416L132.555 17.454H132.216L132.154 16.422C132.139 16.297 132.139 16.125 132.139 15.938H132.124C132.095 16.081 132.041 16.265 131.997 16.414L131.985 16.454L131.677 17.422H131.323L131.015 16.422C131.002 16.361 130.982 16.288 130.962 16.212C130.936 16.1161 130.912 16.0194 130.892 15.922H130.876C130.876 16 130.873 16.082 130.869 16.164C130.864 16.2449 130.862 16.3259 130.861 16.407L130.799 17.438H130.476L130.599 15.704H131.107L131.4 16.547L131.429 16.667L131.43 16.672C131.452 16.765 131.476 16.867 131.508 16.985C131.554 16.829 131.6 16.672 131.631 16.547L131.923 15.688ZM129.152 17.438H129.491V15.985H130.045V15.689H128.613V15.985H129.152V17.439V17.438Z" fill="#230B59"/>
</g>
<defs>
<clipPath id="clip0">
<rect width="133" height="21" fill="white"/>
</clipPath>
</defs>
</svg>
