<svg width="399" height="77" viewBox="0 0 399 77" fill="none" xmlns="http://www.w3.org/2000/svg">
<path d="M56.9892 21.2057C56.9892 17.6157 53.5486 16.7183 50.8324 16.7183V17.2568C52.4622 17.2568 53.7298 17.7952 53.7298 19.0517C53.7298 19.7697 53.1865 20.8467 51.5567 20.8467C50.2892 20.8467 47.573 20.1287 45.5811 19.4107C43.227 18.5132 41.0541 17.7952 39.2432 17.7952C35.6216 17.7952 33.0865 20.4877 33.0865 23.5391C33.0865 26.2316 35.0784 27.1291 35.8027 27.4881L35.9838 27.1291C35.6216 26.7701 35.0784 26.411 35.0784 25.3341C35.0784 24.6161 35.8027 23.3596 37.6135 23.3596C39.2432 23.3596 41.4162 24.0776 44.3135 24.9751C46.8486 25.6931 49.5649 26.2316 51.0135 26.411V31.9755L48.2973 34.3089V34.4885L51.0135 36.8219V44.5402C49.5649 45.4377 47.9351 45.6172 46.4865 45.6172C43.7702 45.6172 41.4162 44.8992 39.4243 42.7453L46.8486 39.1554V26.7701L37.7946 30.719C38.5189 28.3855 40.5108 26.7701 42.5027 25.6931L42.3216 25.1546C36.8892 26.5906 32 31.6165 32 37.7194C32 44.8992 37.9757 50.2842 44.6757 50.2842C51.9189 50.2842 56.627 44.5402 56.627 38.6168H56.2649C55.1784 40.9503 53.5486 43.1043 51.5567 44.1812V36.8219L54.4541 34.4885V34.3089L51.5567 31.9755V26.411C54.273 26.411 56.9892 24.6161 56.9892 21.2057ZM41.2351 40.9503L39.0622 42.0273C37.7946 40.4119 37.0703 38.2578 37.0703 35.2065C37.0703 33.9499 37.0703 32.514 37.4324 31.437L41.2351 29.8215V40.9503ZM60.4298 45.0788L58.0757 46.8737L58.4378 47.2327L59.5243 46.3352L63.5081 49.9252L68.9406 46.3352L68.7594 45.9762L67.3108 46.8737L65.5 45.0788V32.873L66.9486 31.796L70.027 34.3089V45.2582C70.027 52.0791 68.5784 53.1561 65.5 54.2331V54.7716C70.5702 54.9511 75.2784 53.3356 75.2784 44.5402V32.6934L76.9081 31.437L76.5459 31.078L75.0973 32.155L70.5702 28.3855L65.5 32.155V17.4362H65.1378L58.8 21.7442V22.1032C59.5243 22.4622 60.6108 22.8211 60.6108 24.7956L60.4298 45.0788ZM93.5676 43.1043L89.0406 46.5147L84.5135 42.9248V40.7709L93.0243 35.0269V34.8475L88.6784 28.3855L79.2622 33.4115V45.2582L77.4514 46.6943L77.8135 47.0532L79.4433 45.7967L85.6 50.2842L93.7486 43.8222L93.5676 43.1043ZM84.5135 40.0529V31.2575L84.8757 31.078L88.8594 37.3604L84.5135 40.0529ZM128.154 19.5902C128.154 19.0517 127.973 18.5132 127.792 17.9747H127.43C126.886 19.4107 126.162 20.1287 124.351 20.1287C122.722 20.1287 121.635 19.2312 120.911 18.5132L115.659 24.4366L116.022 24.7956L117.833 23.1801C118.919 24.0776 119.824 24.7956 122.359 24.9751V39.8733L111.676 21.7442C110.77 20.3082 109.503 18.3337 106.968 18.3337C104.07 18.3337 101.535 20.8467 101.897 24.7956H102.441C102.622 23.7186 103.165 22.4622 104.432 22.4622C105.338 22.4622 106.243 23.3596 106.786 24.2571V30.1805C103.527 30.1805 101.354 31.6165 101.354 34.3089C101.354 35.7449 102.078 37.8989 104.251 38.4374V38.0784C103.889 37.7194 103.708 37.3604 103.708 36.8219C103.708 35.9244 104.432 35.2065 105.7 35.2065H106.605V42.7453C102.803 42.7453 99.7243 44.8992 99.7243 48.4892C99.7243 51.8996 102.622 53.5151 105.881 53.3356V52.9766C103.889 52.7971 102.984 51.8996 102.984 50.6432C102.984 49.0277 104.07 48.3097 105.519 48.3097C106.968 48.3097 108.235 49.2072 109.141 50.2842L114.392 44.5402L114.03 44.1812L112.762 45.6172C110.77 43.8222 109.684 43.2838 107.33 42.9248V24.9751L121.816 50.1046H122.902V24.9751C125.619 24.7956 128.154 22.6417 128.154 19.5902ZM141.373 43.1043L136.846 46.5147L132.319 42.9248V40.7709L140.83 35.0269V34.8475L136.484 28.3855L127.067 33.4115V45.2582L125.257 46.6943L125.619 47.0532L127.249 45.7967L133.406 50.2842L141.554 43.8222L141.373 43.1043ZM132.319 40.0529V31.2575L132.681 31.078L136.665 37.3604L132.319 40.0529ZM170.889 30.36L169.622 31.2575L166.181 28.3855L162.198 31.9755L163.827 33.591V47.0532L159.481 44.3608V33.232L160.93 32.3344L156.765 28.3855L152.781 31.9755L154.411 33.591V46.5147L153.867 46.8737L150.065 44.1812V33.4115C150.065 30.8985 148.798 30.1805 147.349 29.2831C146.081 28.3855 145.357 27.8471 145.357 26.5906C145.357 25.5136 146.443 24.9751 146.986 24.6161V24.2571C145.538 24.2571 141.735 25.6931 141.735 29.1035C141.735 30.8985 142.641 31.6165 143.546 32.514C144.451 33.4115 145.357 34.1295 145.357 35.7449V46.1557L143.365 47.5917L143.727 47.9507L145.538 46.5147L149.702 50.1046L154.23 47.0532L159.3 50.1046L168.898 44.5402V32.514L171.251 30.719L170.889 30.36ZM204.57 20.4877L202.759 22.1032L198.776 18.5132L192.8 22.8211V18.8722H192.257L192.438 47.9507C191.894 47.9507 190.265 47.5917 188.998 47.2327L188.635 23.0006C188.635 21.2057 187.367 18.6927 184.108 18.6927C180.849 18.6927 178.676 21.2057 178.676 23.7186H179.219C179.4 22.6417 179.943 21.7442 181.03 21.7442C182.116 21.7442 183.022 22.4622 183.022 24.7956V31.796C179.762 31.9755 177.77 33.7705 177.77 36.1039C177.77 37.5399 178.494 39.6939 180.667 39.6939V39.3348C179.943 38.9758 179.762 38.4374 179.762 38.0784C179.762 37.0014 180.667 36.6424 182.116 36.6424H182.841V47.7712C180.124 48.6687 179.038 50.6432 179.038 52.7971C179.038 55.8486 181.392 58.0025 185.014 58.0025C187.549 58.0025 189.722 57.6435 191.894 57.105C193.706 56.746 196.059 56.2076 197.146 56.2076C198.594 56.2076 199.138 56.9255 199.138 57.823C199.138 59.0795 198.594 59.6179 197.87 59.7975V60.1565C200.767 59.618 202.578 57.823 202.578 55.1306C202.578 52.4381 199.862 50.8226 196.965 50.8226C195.516 50.8226 192.438 51.3611 190.265 51.7201C187.73 52.2586 185.194 52.6176 184.47 52.6176C183.202 52.6176 181.754 52.0791 181.754 50.2842C181.754 48.8482 183.022 47.5917 186.1 47.5917C187.73 47.5917 189.722 47.7712 191.714 48.3097C193.886 48.8482 195.878 49.3867 197.689 49.3867C200.406 49.3867 202.759 48.4892 202.759 44.7198V22.6417L204.933 20.8467L204.57 20.4877ZM197.146 31.437C196.602 31.9755 195.878 32.514 194.973 32.514C194.067 32.514 193.162 31.9755 192.8 31.437V23.5391L194.611 22.2827L197.146 24.6161V31.437ZM197.146 36.8219C196.784 36.4629 195.878 35.9244 194.973 35.9244C194.067 35.9244 193.162 36.4629 192.8 36.8219V32.155C193.162 32.514 194.067 33.0525 194.973 33.0525C195.878 33.0525 196.784 32.514 197.146 32.155V36.8219ZM197.146 45.2582C197.146 46.6942 196.241 48.1302 194.249 48.1302H192.8V37.5399C193.162 37.1809 194.067 36.6424 194.973 36.6424C195.878 36.6424 196.602 37.1809 197.146 37.5399V45.2582ZM221.954 32.514L216.159 28.3855L207.286 33.4115V45.0788L205.476 46.5147L205.657 46.8737L207.106 45.7967L212.9 50.1046L221.954 44.7198V32.514ZM212.176 43.8222V30.8985L216.702 34.1295V46.8737L212.176 43.8222ZM239.157 28.7445H238.794C238.251 29.1035 237.708 29.4625 237.165 29.4625C236.441 29.4625 235.535 29.1035 235.173 28.5651H234.811L231.733 31.9755L228.654 28.5651L223.222 32.155L223.402 32.514L224.851 31.6165L226.662 33.591V44.8992L224.308 46.6943L224.67 47.0532L225.757 46.1557L230.102 49.7456L235.716 45.9762L235.535 45.6172L233.906 46.5147L231.733 44.7198V32.155C232.638 33.0525 233.724 33.9499 234.992 33.9499C237.527 34.1295 238.976 31.6165 239.157 28.7445ZM260.886 45.9762L254.73 50.1046L246.4 37.5399L252.376 28.3855H252.738C253.462 29.1035 254.549 29.8215 255.816 29.8215C257.084 29.8215 257.989 29.1035 258.533 28.3855H258.894C258.714 31.9755 256.178 34.1295 254.367 34.1295C252.557 34.1295 251.651 33.232 250.565 32.6934L250.022 33.591L259.076 46.8737L260.886 45.7967V45.9762ZM240.967 45.0788L238.614 46.8737L238.976 47.2327L240.062 46.3352L244.046 49.9252L249.478 46.3352L249.116 45.9762L247.667 46.8737L245.857 45.0788V17.4362H245.676L239.157 21.7442V22.1032C239.881 22.4622 240.967 22.6417 240.967 24.7956V45.0788ZM290.946 21.2057C290.946 17.6157 287.506 16.7183 284.789 16.7183V17.2568C286.419 17.2568 287.686 17.7952 287.686 19.0517C287.686 19.7697 287.143 20.8467 285.514 20.8467C284.246 20.8467 281.53 20.1287 279.538 19.4107C277.184 18.6927 275.011 17.9747 273.2 17.9747C269.578 17.9747 267.043 20.6672 267.043 23.7186C267.043 26.411 269.035 27.3086 269.759 27.6676L269.941 27.3086C269.398 26.9496 268.854 26.5906 268.854 25.5136C268.854 24.7956 269.578 23.5391 271.389 23.5391C273.019 23.5391 275.192 24.2571 278.089 25.1546C280.624 25.8726 283.341 26.411 284.789 26.5906V32.155L282.073 34.4885V34.6679L284.789 37.0014V44.7198C283.341 45.6172 281.711 45.7967 280.262 45.7967C277.546 45.7967 275.192 45.0788 273.2 42.9248L280.624 39.3348V26.7701L271.57 30.719C272.476 28.3855 274.467 26.7701 276.278 25.5136L276.098 25.1546C270.665 26.5906 265.776 31.437 265.776 37.5399C265.776 44.7198 271.751 50.1046 278.451 50.1046C285.694 50.1046 290.402 44.3608 290.402 38.4374H290.041C288.954 40.7709 287.324 42.9248 285.333 44.0018V36.6424L288.23 34.3089V34.1295L285.514 31.796V26.411C288.23 26.411 290.946 24.6161 290.946 21.2057ZM275.192 40.9503L273.019 42.0273C271.751 40.4119 271.027 38.2578 271.027 35.2065C271.027 33.9499 271.208 32.514 271.57 31.437L275.373 29.8215L275.192 40.9503ZM297.284 19.4107H297.102L293.481 22.4622V22.6417L296.559 26.0521H296.922L300.543 23.0006V22.8211L297.284 19.4107ZM302.716 45.9762L301.267 46.8737L299.457 45.0788V32.6934L301.267 31.437L300.906 31.078L299.638 32.155L296.378 28.3855L291.127 31.9755L291.489 32.514L292.757 31.6165L294.386 33.591V45.2582L292.033 47.0532L292.214 47.4122L293.481 46.5147L297.465 50.1046L302.898 46.5147L302.716 45.9762ZM332.957 45.7967L331.689 46.6943L329.698 44.8992V32.6934L331.508 31.2575L331.146 30.8985L329.698 32.155L325.533 28.3855L320.1 32.155L315.935 28.3855L310.865 32.155L307.606 28.3855L302.354 31.9755L302.535 32.514L303.802 31.6165L305.614 33.591V45.2582L304.165 46.6943L308.33 50.1046L312.314 46.5147L310.684 44.8992V32.6934L312.314 31.6165L315.03 34.1295V44.8992L313.581 46.3352L317.746 49.7456L321.73 46.1557L320.1 44.5402V32.6934L321.549 31.796L324.446 34.3089V45.0788L323.178 46.3352L327.343 50.1046L332.957 46.3352V45.7967ZM348.711 43.1043L344.184 46.5147L339.657 42.9248V40.7709L348.167 35.0269V34.8475L343.822 28.3855L334.406 33.4115V45.6172L340.743 50.1046L348.892 43.6428L348.711 43.1043ZM339.657 40.0529V31.2575L340.019 31.078L344.002 37.3604L339.657 40.0529ZM365.189 38.4374L361.749 35.7449C364.102 33.7705 365.008 31.078 365.008 29.2831V28.2061H364.646C364.284 29.1035 363.559 30.001 362.111 30.001C360.662 30.001 359.757 29.2831 358.851 28.2061L350.702 32.6934V39.1554L353.781 41.4888C350.702 44.1812 350.159 45.9762 350.159 47.4122C350.159 49.2072 351.065 50.4636 352.514 51.0022L352.694 50.6432C352.333 50.2842 351.97 50.1046 351.97 49.2072C351.97 48.6687 352.694 47.7712 354.143 47.7712C355.954 47.7712 357.041 49.0277 357.584 49.5662L365.37 44.8992V38.4374H365.189ZM363.198 33.0525C361.93 35.2065 359.214 37.3604 357.584 38.4374L355.592 36.8219V30.5395C356.316 32.3344 358.308 33.7705 360.3 33.7705C361.567 33.7705 362.292 33.591 363.198 33.0525ZM360.119 47.4122C359.214 45.4377 357.041 44.0018 354.867 44.0018C354.324 44.0018 352.876 44.0018 351.427 44.8992C352.333 43.4633 354.686 40.9503 357.765 39.1554L359.938 40.9503L360.119 47.4122Z" fill="#230B59"/>
</svg>
