<svg width="299" height="92" viewBox="0 0 299 92" fill="none" xmlns="http://www.w3.org/2000/svg">
<path d="M92.1247 52.145C91.034 52.145 90.0342 52.6941 89.4889 53.6092C88.9436 54.5242 88.9436 55.7138 89.4889 56.6289C90.0342 57.5439 91.034 58.1387 92.1247 58.093C93.7608 58.0472 95.0333 56.7204 95.0333 55.119C95.0787 53.5177 93.7608 52.1908 92.1247 52.145Z" fill="#230B59"/>
<path d="M88.3527 59.9233C86.9439 59.9233 85.8077 61.0672 85.8077 62.4398C85.8077 63.8582 86.9439 65.002 88.3527 65.002C89.7616 65.002 90.8977 63.8582 90.8977 62.4398C90.8977 61.0672 89.7616 59.9233 88.3527 59.9233Z" fill="#230B59"/>
<path d="M82.8332 70.3968C84.0372 70.3564 84.9808 69.3411 84.9407 68.1288C84.9006 66.9167 83.892 65.9667 82.6881 66.0071C81.484 66.0475 80.5404 67.0628 80.5805 68.275C80.6206 69.4872 81.6292 70.4371 82.8332 70.3968Z" fill="#230B59"/>
<path d="M76.446 70.1265C75.4462 70.1265 74.6736 70.9043 74.6736 71.9108C74.6736 72.9174 75.4462 73.6952 76.446 73.6952C77.4458 73.6952 78.2184 72.9174 78.2184 71.9108C78.2184 70.9043 77.4458 70.1265 76.446 70.1265Z" fill="#230B59"/>
<path d="M70.2653 72.2769C69.4473 72.2769 68.7656 72.9632 68.7656 73.7867C68.7656 74.6102 69.4473 75.2966 70.2653 75.2966C71.0833 75.2966 71.765 74.6102 71.765 73.7867C71.8105 72.9632 71.1288 72.2769 70.2653 72.2769Z" fill="#230B59"/>
<path d="M64.4937 73.146C63.7666 73.146 63.1758 73.7408 63.1758 74.4729C63.1758 75.2049 63.7666 75.7997 64.4937 75.7997C65.2209 75.7997 65.8116 75.2049 65.8116 74.4729C65.7662 73.7408 65.1754 73.146 64.4937 73.146Z" fill="#230B59"/>
<path d="M58.6766 72.2769C57.8586 72.2769 57.1769 72.9632 57.1769 73.7867C57.1769 74.6102 57.8586 75.2966 58.6766 75.2966C59.4946 75.2966 60.1763 74.6102 60.1763 73.7867C60.1763 72.9632 59.4946 72.2769 58.6766 72.2769Z" fill="#230B59"/>
<path d="M52.4961 70.0806C51.8598 70.0806 51.269 70.4009 50.9509 70.9499C50.6328 71.499 50.6328 72.1852 50.9509 72.7343C51.269 73.2833 51.8598 73.6036 52.4961 73.6036C53.4504 73.6036 54.2685 72.8258 54.2685 71.8192C54.223 70.9041 53.4504 70.1263 52.4961 70.0806Z" fill="#230B59"/>
<path d="M46.1791 66.0083C45.4065 66.0083 44.6793 66.42 44.2703 67.1064C43.8613 67.7927 43.8613 68.6162 44.2703 69.3025C44.6793 69.9888 45.3611 70.4006 46.1791 70.4006C47.3606 70.4006 48.3604 69.4398 48.3604 68.2044C48.3604 67.0149 47.4061 66.0083 46.1791 66.0083Z" fill="#230B59"/>
<path d="M40.5893 59.9233C39.1804 59.9233 38.0443 61.0672 38.0443 62.4855C38.0443 63.9039 39.1804 65.0478 40.5893 65.0478C41.9981 65.0478 43.1342 63.9039 43.1342 62.4855C43.0888 61.0672 41.9981 59.9233 40.5893 59.9233Z" fill="#230B59"/>
<path d="M36.8173 52.145C35.7266 52.0993 34.7268 52.6941 34.1814 53.6092C33.6361 54.5242 33.6361 55.7138 34.1814 56.6289C34.7268 57.544 35.7266 58.1388 36.8173 58.093C38.4533 58.0473 39.7258 56.7204 39.7258 55.119C39.7258 53.5177 38.4079 52.1908 36.8173 52.145Z" fill="#230B59"/>
<path d="M35.4539 42.4453C33.5452 42.4453 32 44.0009 32 45.9226C32 47.8442 33.5452 49.3998 35.4539 49.3998C37.3626 49.3998 38.9078 47.8442 38.9078 45.9226C38.8623 44.0009 37.3626 42.4453 35.4539 42.4453Z" fill="#230B59"/>
<path d="M36.8173 33.6606C35.7266 33.6606 34.7268 34.2097 34.1814 35.1248C33.6361 36.0398 33.6361 37.2294 34.1814 38.1445C34.7268 39.0596 35.7266 39.6544 36.8173 39.6086C38.4533 39.5629 39.7258 38.236 39.7258 36.6347C39.7258 35.0333 38.4079 33.7064 36.8173 33.6606Z" fill="#230B59"/>
<path d="M40.5893 26.752C39.6803 26.752 38.8169 27.2095 38.3624 28.033C37.9079 28.8108 37.9079 29.8174 38.3624 30.5952C38.8169 31.373 39.6803 31.8763 40.5893 31.8763C41.9526 31.8305 43.0887 30.7325 43.0887 29.3141C43.0433 27.9415 41.9526 26.7977 40.5893 26.752Z" fill="#230B59"/>
<path d="M46.1791 21.353C44.9975 21.353 43.9977 22.3138 43.9977 23.5492C43.9977 24.7388 44.952 25.7454 46.1791 25.7454C47.3607 25.7454 48.3605 24.7845 48.3605 23.5492C48.3605 22.3596 47.4061 21.353 46.1791 21.353Z" fill="#230B59"/>
<path d="M52.4961 18.1045C51.5417 18.1045 50.7237 18.8823 50.7237 19.8889C50.7237 20.8497 51.4962 21.6733 52.4961 21.6733C53.4504 21.6733 54.2685 20.8955 54.2685 19.8889C54.223 18.9281 53.4504 18.1045 52.4961 18.1045Z" fill="#230B59"/>
<path d="M58.6766 16.4575C57.8132 16.4575 57.1315 17.1438 57.1315 18.0131C57.1315 18.8825 57.8132 19.5687 58.6766 19.5687C59.4947 19.5687 60.1764 18.8825 60.1764 18.0589C60.1309 17.1438 59.4947 16.4575 58.6766 16.4575Z" fill="#230B59"/>
<path d="M64.4483 16C63.7211 16 63.1303 16.5948 63.1303 17.3269C63.1303 18.0589 63.7211 18.6537 64.4483 18.6537C65.1754 18.6537 65.7662 18.0589 65.7662 17.3269C65.7662 16.5948 65.1754 16 64.4483 16Z" fill="#230B59"/>
<path d="M70.2653 16.4575C69.4473 16.4575 68.7656 17.1438 68.7656 17.9674C68.7656 18.7909 69.4473 19.4772 70.2653 19.4772C71.0833 19.4772 71.765 18.7909 71.765 17.9674C71.8105 17.1438 71.1288 16.4575 70.2653 16.4575Z" fill="#230B59"/>
<path d="M76.446 18.1045C75.8097 18.1045 75.2189 18.4248 74.9008 18.9738C74.5827 19.5229 74.5827 20.2091 74.9008 20.7582C75.2189 21.3072 75.8097 21.6275 76.446 21.6275C77.4003 21.6275 78.2184 20.8497 78.2184 19.8431C78.2184 18.8365 77.4458 18.1045 76.446 18.1045Z" fill="#230B59"/>
<path d="M82.7629 21.3989C81.5813 21.3989 80.5815 22.3597 80.5815 23.5951C80.5815 24.7847 81.5358 25.7913 82.7629 25.7913C83.9445 25.7913 84.9443 24.8304 84.9443 23.5951C84.9443 22.3597 83.9445 21.3989 82.7629 21.3989Z" fill="#230B59"/>
<path d="M88.3527 26.752C86.9439 26.752 85.8077 27.8958 85.8077 29.3141C85.8077 30.7325 86.9439 31.8763 88.3527 31.8763C89.7616 31.8763 90.8977 30.7325 90.8977 29.3141C90.8977 27.8958 89.7616 26.752 88.3527 26.752Z" fill="#230B59"/>
<path d="M92.1247 33.6606C91.034 33.6606 90.0342 34.2097 89.4889 35.1248C88.9436 36.0398 88.9436 37.2294 89.4889 38.1445C90.0342 39.0596 91.034 39.6544 92.1247 39.6086C93.7608 39.5629 95.0333 38.236 95.0333 36.6347C95.0333 34.9875 93.7608 33.6606 92.1247 33.6606Z" fill="#230B59"/>
<path d="M78.491 50.4521C77.9911 50.4521 77.5367 50.681 77.3094 51.0927C77.0822 51.5045 77.0822 52.0535 77.3094 52.4653C77.5367 52.8771 77.9911 53.1516 78.491 53.1059C79.2182 53.0601 79.7635 52.4653 79.7635 51.779C79.809 51.0927 79.2182 50.4979 78.491 50.4521Z" fill="#230B59"/>
<path d="M75.1735 55.4395C74.6736 55.4395 74.2192 55.6682 73.9919 56.08C73.7647 56.4918 73.7647 57.0408 73.9919 57.4526C74.2192 57.8643 74.719 58.1389 75.1735 58.0932C75.9006 58.0474 76.446 57.4526 76.446 56.7663C76.446 56.08 75.9006 55.4852 75.1735 55.4395Z" fill="#230B59"/>
<path d="M70.2199 58.6421C69.72 58.6421 69.2201 58.9167 68.9474 59.3742C68.6748 59.8317 68.6748 60.3807 68.9474 60.8383C69.2201 61.2958 69.6746 61.5704 70.2199 61.5704C71.0379 61.5704 71.6742 60.9298 71.6742 60.1062C71.6742 59.2827 71.0379 58.6421 70.2199 58.6421Z" fill="#230B59"/>
<path d="M64.4028 59.5112C63.3121 59.5112 62.4487 60.3806 62.4487 61.4787C62.4487 62.5768 63.3121 63.4461 64.4028 63.4461C65.4935 63.4461 66.357 62.5768 66.357 61.4787C66.3115 60.3806 65.4481 59.5112 64.4028 59.5112Z" fill="#230B59"/>
<path d="M58.5403 58.3218C57.3133 58.3218 56.3135 59.3284 56.3135 60.5637C56.3135 61.7991 57.3133 62.8056 58.5403 62.8056C59.7674 62.8056 60.7672 61.7991 60.7672 60.5637C60.7672 59.3284 59.7674 58.3218 58.5403 58.3218Z" fill="#230B59"/>
<path d="M53.2686 54.5703C51.9053 54.5703 50.8146 55.6684 50.8146 57.041C50.8146 58.4136 51.9053 59.5117 53.2686 59.5117C54.632 59.5117 55.7227 58.4136 55.7227 57.041C55.7227 55.6684 54.632 54.5703 53.2686 54.5703Z" fill="#230B59"/>
<path d="M49.7693 49.5371C48.6331 49.5371 47.7242 50.4522 47.7242 51.596C47.7242 52.7398 48.6331 53.6549 49.7693 53.6549C50.9054 53.6549 51.8143 52.7398 51.8143 51.596C51.8598 50.4979 50.9054 49.5371 49.7693 49.5371Z" fill="#230B59"/>
<path d="M48.9513 44.0469C48.0878 44.0469 47.3607 44.7789 47.3607 45.6483C47.3607 46.5175 48.0878 47.2496 48.9513 47.2496C49.8147 47.2496 50.5419 46.5175 50.5419 45.6483C50.5419 44.7332 49.8602 44.0469 48.9513 44.0469Z" fill="#230B59"/>
<path d="M50.3601 38.6479C49.6329 38.6479 49.0422 39.2427 49.0422 39.9748C49.0422 40.7068 49.6329 41.3017 50.3601 41.3017C51.0872 41.3017 51.678 40.7068 51.678 39.9748C51.7235 39.2427 51.0872 38.6479 50.3601 38.6479Z" fill="#230B59"/>
<path d="M53.7231 33.7065C53.2231 33.7065 52.7687 33.9353 52.5415 34.347C52.3142 34.7589 52.3142 35.3079 52.5415 35.7197C52.7687 36.1314 53.2686 36.406 53.7231 36.3602C54.4502 36.3602 55.041 35.7654 55.041 35.0334C54.9955 34.3013 54.4048 33.7065 53.7231 33.7065Z" fill="#230B59"/>
<path d="M58.6312 30.2295C57.8131 30.2295 57.1769 30.8701 57.1769 31.6936C57.1769 32.5172 57.8131 33.1577 58.6312 33.1577C59.4492 33.1577 60.0855 32.5172 60.0855 31.6936C60.0855 30.9158 59.4492 30.2295 58.6312 30.2295Z" fill="#230B59"/>
<path d="M66.4376 30.3721C66.4791 29.2863 65.6384 28.3722 64.5598 28.3306C63.4813 28.2889 62.5735 29.1353 62.532 30.2211C62.4907 31.3069 63.3314 32.2209 64.4099 32.2626C65.4884 32.3043 66.3962 31.4579 66.4376 30.3721Z" fill="#230B59"/>
<path d="M70.3107 28.9941C69.0837 28.9941 68.0839 30.0007 68.0839 31.236C68.0839 32.4714 69.0837 33.478 70.3107 33.478C71.5378 33.478 72.5376 32.4714 72.5376 31.236C72.5376 30.0007 71.5378 28.9941 70.3107 28.9941Z" fill="#230B59"/>
<path d="M75.5825 32.2881C74.2191 32.2881 73.1284 33.3862 73.1284 34.7588C73.1284 36.1314 74.2191 37.2294 75.5825 37.2294C76.9458 37.2294 78.0366 36.1314 78.0366 34.7588C78.0366 33.3862 76.9458 32.2881 75.5825 32.2881Z" fill="#230B59"/>
<path d="M79.0818 38.0991C77.9457 38.0991 77.0367 39.0142 77.0367 40.158C77.0367 41.3018 77.9457 42.2169 79.0818 42.2169C80.2179 42.2169 81.1268 41.3018 81.1268 40.158C81.1268 39.0142 80.2179 38.0991 79.0818 38.0991Z" fill="#230B59"/>
<path d="M73.7192 49.6743C74.3969 49.6743 74.9462 49.1212 74.9462 48.439C74.9462 47.7567 74.3969 47.2036 73.7192 47.2036C73.0416 47.2036 72.4922 47.7567 72.4922 48.439C72.4922 49.1212 73.0416 49.6743 73.7192 49.6743Z" fill="#230B59"/>
<path d="M71.3106 51.0469C70.3108 51.0469 69.4927 51.8704 69.4927 52.877C69.4927 53.8836 70.3108 54.7071 71.3106 54.7071C72.3104 54.7071 73.1284 53.8836 73.1284 52.877C73.1738 51.8704 72.3558 51.0469 71.3106 51.0469Z" fill="#230B59"/>
<path d="M66.6297 53.5176C65.5844 53.5176 64.7209 54.3869 64.7209 55.4392C64.7209 56.4915 65.5844 57.3609 66.6297 57.3609C67.6749 57.3609 68.5384 56.4915 68.5384 55.4392C68.5384 54.3869 67.6749 53.5176 66.6297 53.5176Z" fill="#230B59"/>
<path d="M61.0853 53.3804C60.4944 53.3804 59.9037 53.7007 59.631 54.2497C59.3129 54.7988 59.3129 55.4393 59.631 55.9426C59.9491 56.4916 60.4944 56.8119 61.0853 56.8119C62.0396 56.8119 62.7668 56.0341 62.7668 55.119C62.8122 54.1582 62.0396 53.3804 61.0853 53.3804Z" fill="#230B59"/>
<path d="M56.9952 50.5894C56.3135 50.5894 55.7681 51.1384 55.7681 51.8247C55.7681 52.511 56.3135 53.0601 56.9952 53.0601C57.6768 53.0601 58.2222 52.511 58.2222 51.8247C58.2677 51.1842 57.6768 50.5894 56.9952 50.5894Z" fill="#230B59"/>
<path d="M55.3591 46.9751C54.8592 46.9751 54.4502 47.3869 54.4502 47.8902C54.4502 48.3935 54.8592 48.8052 55.3591 48.8052C55.859 48.8052 56.268 48.3935 56.268 47.8902C56.268 47.3869 55.859 46.9751 55.3591 46.9751Z" fill="#230B59"/>
<path d="M55.2683 42.2627C54.5866 42.2627 54.0412 42.8118 54.0412 43.498C54.0412 44.1843 54.5866 44.7334 55.2683 44.7334C55.9499 44.7334 56.4953 44.1843 56.4953 43.498C56.4953 42.8118 55.9499 42.2627 55.2683 42.2627Z" fill="#230B59"/>
<path d="M57.6768 37.1836C56.677 37.1836 55.859 38.0072 55.859 39.0137C55.859 40.0204 56.677 40.8439 57.6768 40.8439C58.6766 40.8439 59.4947 40.0204 59.4947 39.0137C59.4947 38.0072 58.6766 37.1836 57.6768 37.1836Z" fill="#230B59"/>
<path d="M62.3578 34.5303C61.3125 34.5303 60.4491 35.3996 60.4491 36.4519C60.4491 37.5042 61.3125 38.3735 62.3578 38.3735C63.4031 38.3735 64.2665 37.5042 64.2665 36.4519C64.2665 35.3996 63.4031 34.5303 62.3578 34.5303Z" fill="#230B59"/>
<path d="M67.9022 35.125C67.2659 35.125 66.7205 35.4452 66.4024 35.9486C66.0843 36.4976 66.0843 37.1381 66.4024 37.6871C66.7205 38.2362 67.3114 38.5565 67.9022 38.5107C68.8111 38.465 69.5382 37.733 69.5382 36.8179C69.5382 35.9028 68.8111 35.1707 67.9022 35.125Z" fill="#230B59"/>
<path d="M71.9468 38.7852C71.2651 38.7852 70.7198 39.3342 70.7198 40.0205C70.7198 40.7068 71.2651 41.2558 71.9468 41.2558C72.6285 41.2558 73.1738 40.7068 73.1738 40.0205C73.2192 39.3342 72.6739 38.7852 71.9468 38.7852Z" fill="#230B59"/>
<path d="M73.6737 43.1318C73.1738 43.1318 72.7648 43.5436 72.7648 44.0469C72.7648 44.5502 73.1738 44.962 73.6737 44.962C74.1736 44.962 74.5827 44.5502 74.5827 44.0469C74.5827 43.5436 74.1736 43.1318 73.6737 43.1318Z" fill="#230B59"/>
<path d="M79.8998 44.5503C79.0364 44.5503 78.3092 45.2824 78.3092 46.1517C78.3092 47.021 79.0364 47.7531 79.8998 47.7531C80.7633 47.7531 81.4904 47.021 81.4904 46.1517C81.4904 45.2824 80.7633 44.5503 79.8998 44.5503Z" fill="#230B59"/>
<path d="M86.4895 46.5176C85.5351 46.5176 84.808 47.2954 84.808 48.2105C84.808 49.1713 85.5806 49.9033 86.4895 49.9033C87.4438 49.9033 88.171 49.1255 88.171 48.2105C88.171 47.2954 87.4438 46.5176 86.4895 46.5176Z" fill="#230B59"/>
<path d="M84.808 52.5112C83.9445 52.5112 83.2173 53.2433 83.2173 54.1126C83.2173 54.9819 83.9445 55.714 84.808 55.714C85.6714 55.714 86.3986 54.9819 86.3986 54.1126C86.3986 53.2433 85.7169 52.5112 84.808 52.5112Z" fill="#230B59"/>
<path d="M81.9449 57.5439C81.2177 57.5439 80.5815 58.1388 80.5815 58.9165C80.5815 59.6486 81.1723 60.2892 81.9449 60.2892C82.672 60.2892 83.2628 59.6486 83.2628 58.9165C83.2628 58.1845 82.672 57.5897 81.9449 57.5439Z" fill="#230B59"/>
<path d="M78.491 61.2959C78.082 61.2959 77.673 61.5246 77.4457 61.8906C77.2185 62.2567 77.2185 62.7142 77.4457 63.0803C77.673 63.4463 78.0366 63.675 78.491 63.675C79.1272 63.675 79.6726 63.1718 79.6726 62.4855C79.6726 61.8449 79.1272 61.2959 78.491 61.2959Z" fill="#230B59"/>
<path d="M74.8553 64.041C74.31 64.041 73.8555 64.4985 73.8555 65.0476C73.8555 65.5966 74.31 66.0542 74.8553 66.0542C75.4007 66.0542 75.8551 65.5966 75.8551 65.0476C75.8551 64.4985 75.4007 64.041 74.8553 64.041Z" fill="#230B59"/>
<path d="M70.7198 65.5967C70.0835 65.5967 69.5381 66.1 69.5381 66.7863C69.5381 67.4268 70.0381 67.9759 70.7198 67.9759C71.356 67.9759 71.9014 67.4726 71.9014 66.7863C71.8559 66.1 71.356 65.5967 70.7198 65.5967Z" fill="#230B59"/>
<path d="M65.8571 66.3745C65.1299 66.3745 64.4937 66.9693 64.4937 67.7471C64.4937 68.4791 65.0845 69.1197 65.8571 69.1197C66.5842 69.1197 67.2205 68.5249 67.2205 67.7471C67.175 66.9693 66.5842 66.3745 65.8571 66.3745Z" fill="#230B59"/>
<path d="M60.3127 65.8257C59.3583 65.8257 58.5858 66.6035 58.5858 67.5643C58.5858 68.5251 59.3583 69.303 60.3127 69.303C61.2671 69.303 62.0396 68.5251 62.0396 67.5643C62.0396 66.6035 61.2671 65.8257 60.3127 65.8257Z" fill="#230B59"/>
<path d="M54.4502 63.7207C53.314 63.7207 52.4051 64.6358 52.4051 65.7797C52.4051 66.9235 53.314 67.8385 54.4502 67.8385C55.5863 67.8385 56.4952 66.9235 56.4952 65.7797C56.5407 64.6358 55.5863 63.7207 54.4502 63.7207Z" fill="#230B59"/>
<path d="M49.3148 59.7861C48.4513 59.7861 47.6333 60.2436 47.1789 60.9757C46.7244 61.7535 46.7244 62.6686 47.1789 63.4464C47.6333 64.2242 48.4513 64.6817 49.3148 64.636C50.6328 64.5902 51.678 63.5379 51.678 62.211C51.678 60.93 50.6328 59.8319 49.3148 59.7861Z" fill="#230B59"/>
<path d="M44.9974 53.9297C43.5432 53.9297 42.3616 55.1193 42.3616 56.5834C42.3616 58.0475 43.5432 59.237 44.9974 59.237C46.4517 59.237 47.6333 58.0475 47.6333 56.5834C47.6333 55.0735 46.4517 53.9297 44.9974 53.9297Z" fill="#230B59"/>
<path d="M44.6474 50.0304C44.7293 48.8709 43.862 47.8642 42.7103 47.7817C41.5587 47.6994 40.5587 48.5725 40.4768 49.732C40.395 50.8915 41.2622 51.8982 42.4139 51.9805C43.5656 52.063 44.5656 51.1898 44.6474 50.0304Z" fill="#230B59"/>
<path d="M44.1116 43.6464C44.163 42.7129 43.4529 41.9142 42.5256 41.8625C41.5984 41.8108 40.8051 42.5256 40.7537 43.4592C40.7023 44.3927 41.4124 45.1915 42.3397 45.2432C43.2669 45.2948 44.0603 44.58 44.1116 43.6464Z" fill="#230B59"/>
<path d="M44.134 36.04C43.2705 36.04 42.5435 36.772 42.5435 37.6414C42.5435 38.5107 43.2705 39.2427 44.134 39.2427C44.9975 39.2427 45.7246 38.5107 45.7246 37.6414C45.7246 36.772 44.9975 36.04 44.134 36.04Z" fill="#230B59"/>
<path d="M46.9971 31.5103C46.4972 31.5103 46.0427 31.739 45.8155 32.1965C45.5883 32.6083 45.5883 33.1573 45.8155 33.5691C46.0427 33.9809 46.5426 34.2555 46.9971 34.2555C47.7242 34.2555 48.315 33.6149 48.315 32.8828C48.315 32.105 47.7242 31.5103 46.9971 31.5103Z" fill="#230B59"/>
<path d="M50.451 28.1245C49.8148 28.1245 49.2694 28.6278 49.2694 29.3141C49.2694 29.9546 49.7693 30.5037 50.451 30.5037C51.1327 30.5037 51.6326 30.0004 51.6326 29.3141C51.6326 28.6736 51.0872 28.1245 50.451 28.1245Z" fill="#230B59"/>
<path d="M54.0866 25.7456C53.5413 25.7456 53.0868 26.2032 53.0868 26.7522C53.0868 27.3012 53.5413 27.7588 54.0866 27.7588C54.632 27.7588 55.0864 27.3012 55.0864 26.7522C55.0864 26.1574 54.632 25.7456 54.0866 25.7456Z" fill="#230B59"/>
<path d="M58.2222 23.8696C57.586 23.8696 57.0406 24.3729 57.0406 25.0592C57.0406 25.6998 57.5405 26.2488 58.2222 26.2488C58.8585 26.2488 59.4038 25.7455 59.4038 25.0592C59.4038 24.3729 58.8585 23.8696 58.2222 23.8696Z" fill="#230B59"/>
<path d="M63.0849 22.6802C62.585 22.6802 62.1305 22.9089 61.9033 23.3665C61.6761 23.7782 61.6761 24.3273 61.9033 24.7391C62.1305 25.1509 62.6305 25.4254 63.0849 25.4254C63.812 25.4254 64.4029 24.7848 64.4029 24.0528C64.4029 23.3207 63.812 22.7259 63.0849 22.6802Z" fill="#230B59"/>
<path d="M68.6293 22.4512C67.9931 22.4512 67.4022 22.7714 67.0841 23.3205C66.766 23.8695 66.766 24.5558 67.0841 25.1049C67.4022 25.6539 67.9931 25.9742 68.6293 25.9742C69.5836 25.9742 70.3562 25.1506 70.3562 24.1898C70.3562 23.229 69.5836 22.4512 68.6293 22.4512Z" fill="#230B59"/>
<path d="M74.31 23.7778C73.1738 23.7778 72.2195 24.6929 72.2195 25.8825C72.2195 27.0264 73.1284 27.9872 74.31 27.9872C75.4462 27.9872 76.4005 27.0721 76.4005 25.8825C76.4005 24.7387 75.4462 23.7778 74.31 23.7778Z" fill="#230B59"/>
<path d="M79.6726 27.0723C78.3092 27.0723 77.264 28.1703 77.264 29.4972C77.264 30.824 78.3547 31.9221 79.6726 31.9221C81.036 31.9221 82.0812 30.824 82.0812 29.4972C82.0812 28.1703 80.9905 27.0723 79.6726 27.0723Z" fill="#230B59"/>
<path d="M83.9445 32.5625C82.9901 32.5625 82.1266 33.0658 81.6268 33.8893C81.1268 34.7129 81.1268 35.7195 81.6268 36.543C82.1266 37.3666 82.9901 37.8699 83.9445 37.8699C85.3988 37.8242 86.5349 36.6803 86.5349 35.2162C86.4895 33.7978 85.3533 32.6082 83.9445 32.5625Z" fill="#230B59"/>
<path d="M86.3531 39.8374C85.626 39.8374 84.8988 40.2035 84.5353 40.844C84.1717 41.4845 84.1717 42.3081 84.5353 42.9487C84.8988 43.5892 85.626 44.001 86.3531 43.9552C87.4892 43.9095 88.3527 42.9944 88.3527 41.8964C88.3527 40.7982 87.4892 39.8832 86.3531 39.8374Z" fill="#230B59"/>
<path d="M96.942 45.8772C96.942 47.7988 95.3968 49.3544 93.4881 49.3544C91.5794 49.3544 90.0342 47.7988 90.0342 45.8772C90.0342 43.9555 91.5794 42.3999 93.4881 42.3999C95.3968 42.4457 96.942 44.0013 96.942 45.8772Z" fill="#230B59"/>
<path d="M267 51.2303C267 47.936 265.137 46.1974 262.228 45.0078C259.956 44.0927 257.956 43.3149 256.411 42.6744C254.911 42.0796 253.593 41.0273 253.593 39.8834C253.593 38.3278 255.502 37.4128 258.047 37.4128C261.046 37.4128 263.41 37.8245 265.637 38.0533H265.727C266.091 38.0533 266.318 37.7788 266.318 37.4128V34.8506C266.318 34.5303 266.046 34.2557 265.682 34.21C264.5 33.9355 261.501 33.2949 258.229 33.2949C251.867 33.2949 248.822 36.0401 248.822 39.8834C248.822 42.3084 249.867 44.6876 252.866 45.9229C255.866 47.1582 262.001 48.6223 262.001 51.1845C262.001 53.1977 261.092 54.2957 258.002 54.2957C254.821 54.2957 251.594 53.8382 250.23 53.6552H250.14C249.776 53.6552 249.504 53.9297 249.504 54.2957V56.7664C249.504 57.1324 249.821 57.407 250.14 57.4528C251.776 57.8188 254.866 58.3678 257.911 58.3678C264.864 58.4593 267 54.7076 267 51.2303Z" fill="#230B59"/>
<path d="M199.741 37.5957H192.878V57.4526C192.878 57.8187 192.56 58.1389 192.196 58.1389H188.788C188.424 58.1389 188.106 57.8187 188.106 57.4526V37.5957H181.244C180.88 37.5957 180.562 37.3669 180.562 36.9551V34.2099C180.562 33.8438 180.88 33.5693 181.244 33.5693H199.741C200.104 33.5693 200.422 33.8438 200.422 34.2099V36.9551C200.422 37.3669 200.104 37.5957 199.741 37.5957Z" fill="#230B59"/>
<path d="M177.563 48.6681V34.2558C177.563 33.8898 177.245 33.6152 176.881 33.6152H173.473C173.109 33.6152 172.791 33.8898 172.791 34.2558V48.6224C172.791 52.5572 170.973 54.4331 167.292 54.4331C163.611 54.4331 161.793 52.5572 161.793 48.6224V34.2558C161.793 33.8898 161.475 33.6152 161.111 33.6152H157.703C157.34 33.6152 157.021 33.8898 157.021 34.2558V48.6224C157.021 55.9887 161.793 58.4136 167.292 58.4136C172.791 58.4136 177.563 56.0344 177.563 48.6681Z" fill="#230B59"/>
<path d="M208.329 47.4781H219.328C219.691 47.4781 220.009 47.1579 220.009 46.7918V44.2753C220.009 43.9093 219.691 43.5891 219.328 43.5891H208.329V40.4321C208.329 37.5496 208.421 37.4581 211.056 37.4581H219.737C220.1 37.4581 220.418 37.1379 220.418 36.7718V34.5757C220.418 34.0723 220.236 33.9351 219.737 33.8436C218.646 33.6606 216.419 33.3403 212.329 33.3403C206.648 33.3403 203.604 33.2945 203.604 40.4321V51.3671C203.604 58.5047 206.648 58.4589 212.329 58.4589C216.419 58.4589 218.646 58.1387 219.737 57.9556C220.236 57.9099 220.418 57.7269 220.418 57.2236V55.0274C220.418 54.6614 220.1 54.3411 219.737 54.3411H211.056C208.466 54.3411 208.329 54.2496 208.329 51.3671V47.4781Z" fill="#230B59"/>
<path d="M140.479 47.4781H151.477C151.841 47.4781 152.159 47.1579 152.159 46.7918V44.2753C152.159 43.9093 151.841 43.5891 151.477 43.5891H140.479V40.4321C140.479 37.5496 140.57 37.4581 143.206 37.4581H151.886C152.25 37.4581 152.568 37.1379 152.568 36.7718V34.5757C152.568 34.0723 152.386 33.9351 151.886 33.8436C150.795 33.6606 148.568 33.3403 144.478 33.3403C138.798 33.3403 135.753 33.2945 135.753 40.4321V51.3671C135.753 58.5047 138.798 58.4589 144.478 58.4589C148.568 58.4589 150.795 58.1387 151.886 57.9556C152.386 57.9099 152.568 57.7269 152.568 57.2236V55.0274C152.568 54.6614 152.25 54.3411 151.886 54.3411H143.206C140.615 54.3411 140.479 54.2496 140.479 51.3671V47.4781Z" fill="#230B59"/>
<path d="M245.958 57.4524L240.596 48.2102C243.414 47.1121 245.232 45.099 245.232 41.4387V41.1642C245.232 35.262 240.368 33.3403 235.051 33.3403C232.552 33.3403 228.689 33.5233 226.917 33.7979C226.235 33.8894 225.826 34.1639 225.826 34.8502V57.4981C225.826 57.8642 226.144 58.1844 226.507 58.1844H229.961C230.325 58.1844 230.598 57.8642 230.598 57.4981V48.9422C231.371 48.988 234.143 49.0795 235.051 49.0795H235.824L240.777 57.4524C240.96 57.7727 241.096 58.1387 241.459 58.1387H245.641C245.913 58.1387 246.05 57.9557 246.05 57.7269C246.05 57.6354 246.004 57.5439 245.958 57.4524ZM240.46 41.4387C240.46 44.4584 238.551 45.1447 235.006 45.1447C234.416 45.1447 231.098 45.0532 230.553 45.0532V37.5954C231.143 37.5039 234.279 37.4582 235.006 37.4582C238.46 37.4582 240.46 38.5562 240.46 41.1642V41.4387Z" fill="#230B59"/>
<path d="M132.026 57.4524L126.618 48.2102C129.436 47.1121 131.253 45.099 131.253 41.4387V41.1642C131.253 35.262 126.391 33.3403 121.074 33.3403C118.574 33.3403 114.711 33.5233 112.939 33.7979C112.257 33.8894 111.849 34.1639 111.849 34.8502V57.4981C111.849 57.8642 112.166 58.1844 112.53 58.1844H115.984C116.347 58.1844 116.62 57.8642 116.62 57.4981V48.9422C117.392 48.988 120.165 49.0795 121.074 49.0795H121.847L126.8 57.4524C126.981 57.7727 127.118 58.1387 127.482 58.1387H131.662C131.935 58.1387 132.071 57.9557 132.071 57.7269C132.071 57.6354 132.071 57.5439 132.026 57.4524ZM126.527 41.4387C126.527 44.4584 124.618 45.1447 121.119 45.1447C120.529 45.1447 117.211 45.0532 116.666 45.0532V37.5954C117.256 37.5039 120.392 37.4582 121.119 37.4582C124.573 37.4582 126.527 38.5562 126.527 41.1642V41.4387Z" fill="#230B59"/>
</svg>
