<svg width="474" height="567" viewBox="0 0 474 567" fill="none" xmlns="http://www.w3.org/2000/svg">
<path d="M26.7798 98.679C25.0587 88.9014 33.1353 79.3084 44.8198 77.2516L349.445 23.6305C361.138 21.5723 372.011 27.8425 373.721 37.6303L448.236 464.385C449.942 474.157 441.866 483.737 430.192 485.792L126.153 539.31C114.468 541.367 103.601 535.108 101.88 525.331L26.7798 98.679Z" fill="url(#paint0_linear)"/>
<g filter="url(#filter0_d)">
<path fill-rule="evenodd" clip-rule="evenodd" d="M26.223 99.2333C24.502 89.4557 32.5785 79.8627 44.2631 77.8059L348.913 24.1806C360.597 22.1238 371.464 28.3824 373.185 38.16L448.286 464.812C450.007 474.589 441.93 484.183 430.246 486.239L125.596 539.865C113.911 541.921 103.045 535.663 101.324 525.885L26.223 99.2333Z" fill="url(#paint1_linear)"/>
</g>
<g opacity="0.8">
<mask id="mask0" mask-type="alpha" maskUnits="userSpaceOnUse" x="25" y="23" width="424" height="518">
<g opacity="0.8">
<path opacity="0.8" fill-rule="evenodd" clip-rule="evenodd" d="M26.223 99.2333C24.502 89.4557 32.5785 79.8627 44.2631 77.8059L348.913 24.1806C360.597 22.1238 371.464 28.3824 373.185 38.16L448.286 464.812C450.007 474.589 441.93 484.183 430.246 486.239L125.596 539.865C113.911 541.921 103.045 535.663 101.324 525.885L26.223 99.2333Z" fill="url(#paint2_linear)"/>
</g>
</mask>
<g mask="url(#mask0)">
<g opacity="0.8">
<path opacity="0.8" d="M223.453 33.488C191.137 39.1764 156.847 40.099 115.699 34.4588C105.153 33.0077 94.6208 31.5063 84.1019 29.9547C38.7288 23.3672 13.7344 19.7342 -47.3176 22.2071L-47.2551 18.1697C14.3234 15.6643 39.4911 19.3272 85.1859 25.9584C94.6364 27.3557 105.023 28.8492 116.737 30.4706C216.012 44.058 275.16 18.689 364.704 -19.5782C372.567 -22.9268 380.436 -26.2648 388.31 -29.5923L390.239 -26.046L366.546 -15.9774C313.122 6.91459 270.345 25.234 223.453 33.488Z" fill="url(#paint3_linear)"/>
<path opacity="0.8" d="M225.634 45.8804C193.318 51.5688 159.028 52.4896 117.883 46.8644C106.123 45.2494 95.7567 43.7321 86.2851 42.3577C40.9079 35.7463 15.9129 32.1106 -45.1361 34.6003L-45.0737 30.5621C16.5052 28.0593 41.6734 31.7248 87.3725 38.3808C96.8196 39.7587 107.207 41.2531 118.924 42.8957C218.201 56.4919 277.348 31.1185 366.867 -7.15165L390.503 -17.1318L392.432 -13.5846C384.555 -10.2702 376.696 -6.92022 368.857 -3.53489C315.306 19.3229 272.526 37.6264 225.634 45.8804Z" fill="url(#paint4_linear)"/>
<path opacity="0.8" d="M227.985 59.1556C195.668 64.8442 161.36 65.676 120.182 59.8741C108.411 58.208 98.0361 56.6448 88.5572 55.2288C43.1459 48.4363 18.1282 44.6714 -42.945 47.0486L-42.8924 42.9545C18.7134 40.5858 43.8985 44.3413 89.6365 51.1995C99.0911 52.6198 109.491 54.1787 121.214 55.8532C220.597 69.8913 279.685 44.2958 369.158 5.73436C376.778 2.3516 384.629 -0.950493 392.741 -4.42072L394.679 -0.819483L371.027 9.34789C317.64 32.4688 274.88 50.901 227.985 59.1556Z" fill="url(#paint5_linear)"/>
<path opacity="0.8" d="M230.322 72.433C198.005 78.1216 163.7 78.9747 122.52 73.1568C111.965 71.6605 101.423 70.1133 90.8959 68.5151C45.482 61.7076 20.4684 57.9656 -40.6081 60.3243L-40.5552 56.232C21.0467 53.8411 46.2349 57.6144 91.972 64.4672C101.426 65.8858 111.822 67.4252 123.548 69.1174C222.904 83.1304 282.019 57.5556 371.513 18.9776C379.11 15.599 386.961 12.2978 395.076 8.8479L397.011 12.427C389.148 15.7912 381.295 19.1742 373.452 22.576C319.974 45.7294 277.217 64.1785 230.322 72.433Z" fill="url(#paint6_linear)"/>
<path opacity="0.8" d="M232.504 84.8255C200.187 90.5141 165.881 91.3636 124.703 85.5581C112.932 83.8912 102.557 82.3263 93.0778 80.9102C47.6621 74.093 22.6474 70.3448 -38.4263 72.7194L-38.3739 68.6245C23.229 66.2389 48.4181 70.0175 94.1568 76.8791C103.611 78.2995 114.008 79.8406 125.734 81.5355C225.097 95.5884 284.207 69.9843 373.679 31.4158C381.298 28.0313 389.149 24.7292 397.261 21.2581L399.199 24.8593L375.547 35.0293C322.154 58.1157 279.399 76.5709 232.504 84.8255Z" fill="url(#paint7_linear)"/>
<path opacity="0.8" d="M234.685 97.2178C202.368 102.906 168.063 103.758 126.882 97.9363C116.326 96.4389 105.785 94.8904 95.2571 93.291C49.8458 86.4986 24.8317 82.754 -36.2451 85.1108L-36.1925 81.0168C25.4098 78.6286 50.5984 82.4036 96.3364 89.2617C106.854 90.8421 117.38 92.3933 127.913 93.9154C227.294 107.934 286.385 82.3581 375.854 43.7771C383.474 40.3935 391.326 37.0923 399.437 33.6212L401.375 37.2224C393.264 40.6926 385.433 44.1133 377.793 47.3784C324.336 70.5116 281.58 88.9633 234.685 97.2178Z" fill="url(#paint8_linear)"/>
<path opacity="0.8" d="M236.853 109.613C204.537 115.301 170.246 116.222 129.101 110.597C117.341 108.982 106.975 107.464 97.5034 106.09C52.126 99.4777 27.1312 95.8429 -33.9178 98.3326L-33.8554 94.2944C27.7236 91.7916 52.8917 95.4571 98.5909 102.113C108.038 103.491 118.425 104.985 130.142 106.628C229.423 120.245 288.567 94.8508 378.109 56.5765L401.711 46.542L403.64 50.0884C395.525 53.531 387.69 56.9243 380.065 60.139C326.525 83.0552 283.744 101.359 236.853 109.613Z" fill="url(#paint9_linear)"/>
<path opacity="0.8" d="M239.204 122.888C206.886 128.576 172.594 129.499 131.445 123.859C120.898 122.408 110.365 120.907 99.8451 119.356C54.4699 112.769 29.4754 109.136 -31.5808 111.609L-31.5182 107.572C30.0634 105.066 55.2322 108.729 100.93 115.359C110.377 116.737 120.768 118.249 132.482 119.871C231.763 133.458 290.914 108.088 380.439 69.8241C388.064 66.4688 395.92 63.1933 404.037 59.7513L405.965 63.2977L382.305 73.4217C328.878 96.3125 286.098 114.633 239.204 122.888Z" fill="url(#paint10_linear)"/>
<path opacity="0.8" d="M241.385 135.28C209.068 140.969 174.775 141.89 133.628 136.265C121.867 134.65 111.5 133.133 102.028 131.759C56.6488 125.147 31.654 121.512 -29.3993 124.003L-29.3369 119.964C32.223 117.465 57.4144 121.126 103.093 127.786C113.611 129.318 124.136 130.822 134.669 132.296C233.951 145.892 293.102 120.518 382.626 82.2467L406.227 72.1925L408.152 75.7185C400.284 79.0564 392.426 82.4129 384.579 85.7878C331.062 108.721 288.28 127.025 241.385 135.279L241.385 135.28Z" fill="url(#paint11_linear)"/>
<path opacity="0.8" d="M243.566 147.672C211.249 153.361 176.953 154.265 135.807 148.643C124.046 147.03 113.679 145.513 104.208 144.14C58.8326 137.553 33.8347 133.901 -27.2181 136.394L-27.1555 132.357C34.4227 129.831 59.5914 133.494 105.293 140.145C114.74 141.522 125.131 143.035 136.845 144.656C236.129 158.262 295.277 132.873 384.829 94.6243C392.436 91.3524 400.294 87.9962 408.403 84.5556L410.331 88.102L386.668 98.2056C333.241 121.097 290.461 139.418 243.566 147.672Z" fill="url(#paint12_linear)"/>
<path opacity="0.8" d="M245.748 160.065C213.43 165.754 179.138 166.678 137.99 161.042C127.443 159.592 116.91 158.092 106.391 156.542C61.0127 149.939 36.0188 146.309 -25.0371 148.785L-24.9742 144.749C36.6071 142.241 61.7752 145.9 107.476 152.547C116.923 153.923 127.31 155.415 139.027 157.056C238.306 170.632 297.458 145.267 386.985 107.009C394.61 103.655 402.466 100.38 410.586 96.9587L412.511 100.484C404.643 103.82 396.785 107.176 388.937 110.55C335.416 133.454 292.643 151.81 245.748 160.065Z" fill="url(#paint13_linear)"/>
<path opacity="0.8" d="M248.085 173.342C215.768 179.031 181.462 179.881 140.284 174.075C128.513 172.408 118.138 170.843 108.659 169.427C63.2431 162.61 38.2284 158.862 -22.8453 161.236L-22.7929 157.141C38.7878 154.76 63.9991 158.534 109.714 165.4C120.24 166.98 130.774 168.531 141.315 170.052C240.678 184.105 299.788 158.501 389.26 119.933C396.879 116.548 404.73 113.246 412.842 109.775L414.78 113.377L391.128 123.546C337.735 146.633 294.98 165.088 248.085 173.342Z" fill="url(#paint14_linear)"/>
<path opacity="0.8" d="M250.266 185.735C217.949 191.423 183.657 192.348 142.508 186.712C131.962 185.262 121.429 183.762 110.909 182.212C65.5312 175.609 40.5373 171.979 -20.5186 174.455L-20.4557 170.419C41.1255 167.91 66.2937 171.57 111.995 178.217C121.441 179.593 131.829 181.085 143.546 182.725C242.825 196.302 301.977 170.937 391.527 132.675C399.128 129.325 406.984 126.05 415.101 122.609L417.029 126.154C409.161 129.49 401.304 132.846 393.456 136.22C339.941 159.163 297.161 177.48 250.266 185.735Z" fill="url(#paint15_linear)"/>
<path opacity="0.8" d="M252.447 198.127C220.13 203.816 185.837 204.737 144.691 199.112C132.929 197.497 122.562 195.979 113.091 194.606C67.7113 187.994 42.7165 184.359 -18.3368 186.85L-18.2744 182.811C43.3078 180.308 68.477 183.973 114.179 190.629C124.689 192.163 135.207 193.667 145.732 195.143C245.014 208.739 304.164 183.365 393.689 145.094L417.289 135.04L419.218 138.586C411.101 142.029 403.266 145.421 395.642 148.637C342.132 171.608 299.342 189.873 252.447 198.127Z" fill="url(#paint16_linear)"/>
<path opacity="0.8" d="M254.785 211.405C222.467 217.093 188.162 217.945 146.981 212.123C135.211 210.457 124.835 208.894 115.357 207.478C69.9453 200.685 44.931 196.94 -16.1456 199.298L-16.093 195.204C45.4871 192.819 70.698 196.591 116.409 203.433C125.888 204.848 136.262 206.413 148.009 208.082C247.37 222.125 306.481 196.525 395.954 157.964C403.574 154.58 411.425 151.279 419.537 147.809L421.475 151.409L397.826 161.597C344.432 184.678 301.68 203.15 254.785 211.405Z" fill="url(#paint17_linear)"/>
<path opacity="0.8" d="M256.952 223.8C224.636 229.488 190.333 230.337 149.157 224.531C137.387 222.864 127.013 221.299 117.534 219.883C72.1201 213.065 47.1053 209.317 -13.9641 211.691L-13.9117 207.596C47.688 205.211 72.8761 208.99 118.612 215.852C128.066 217.272 138.461 218.814 150.188 220.509C249.542 234.542 308.652 208.959 398.138 170.367L421.727 160.25L423.662 163.832C415.799 167.197 407.946 170.581 400.104 173.984C346.597 197.091 303.867 215.542 256.952 223.8Z" fill="url(#paint18_linear)"/>
<path opacity="0.8" d="M259.303 237.075C226.986 242.763 192.677 243.594 151.5 237.793C139.729 236.127 129.354 234.564 119.875 233.148C74.4638 226.355 49.4461 222.59 -11.6271 224.968L-11.5745 220.874C50.0279 218.485 75.2165 222.261 120.954 229.119C130.409 230.538 140.808 232.098 152.531 233.771C251.892 247.814 311.003 222.215 400.476 183.653C408.096 180.271 415.947 176.969 424.059 173.498L425.997 177.099L402.344 187.267C348.951 210.348 306.198 228.82 259.303 237.075Z" fill="url(#paint19_linear)"/>
<path opacity="0.8" d="M261.484 249.467C229.167 255.156 194.875 256.08 153.726 250.444C143.18 248.994 132.647 247.494 122.127 245.944C76.7495 239.341 51.7557 235.711 -9.30023 238.187L-9.23737 234.151C52.3438 231.643 77.5121 235.303 123.213 241.949C132.66 243.325 143.047 244.817 154.764 246.458C254.043 260.034 313.195 234.669 402.722 196.411C410.364 193.155 418.203 189.782 426.323 186.361L428.248 189.886C420.38 193.223 412.522 196.578 404.674 199.952C351.163 222.915 308.379 241.212 261.484 249.467Z" fill="url(#paint20_linear)"/>
<path opacity="0.8" d="M263.666 261.859C231.349 267.548 197.056 268.469 155.909 262.844C144.148 261.23 133.781 259.712 124.309 258.338C78.9296 251.726 53.9348 248.091 -7.11843 250.582L-7.05603 246.544C54.5261 244.04 79.6953 247.706 125.398 254.361C135.907 255.895 146.425 257.4 156.95 258.876C256.259 272.486 315.383 247.097 404.91 208.845C412.535 205.489 420.391 202.214 428.507 198.772L430.436 202.318L406.769 212.405C353.343 235.301 310.561 253.605 263.666 261.859Z" fill="url(#paint21_linear)"/>
<path opacity="0.8" d="M265.847 274.252C233.53 279.94 199.238 280.865 158.089 275.229C147.543 273.779 137.01 272.279 126.49 270.729C81.1122 264.126 56.1184 260.496 -4.93754 262.972L-4.87468 258.936C56.7065 256.427 81.8748 260.087 127.576 266.734C137.022 268.11 147.41 269.602 159.127 271.242C258.406 284.819 317.558 259.454 407.084 221.196C414.709 217.842 422.565 214.567 430.682 211.126L432.61 214.671C424.742 218.007 416.885 221.363 409.037 224.736C355.525 247.7 312.742 265.997 265.847 274.252Z" fill="url(#paint22_linear)"/>
<path opacity="0.8" d="M268.171 287.532C235.854 293.22 201.551 294.069 160.375 288.264C148.605 286.596 138.231 285.031 128.752 283.615C83.3384 276.798 58.3237 273.049 -2.74577 275.423L-2.69334 271.328C58.9063 268.943 84.0944 272.722 129.83 279.584C139.284 281.005 149.68 282.546 161.406 284.241C260.763 298.295 319.871 272.691 409.333 234.103L432.945 223.982L434.883 227.584C426.773 231.054 418.943 234.475 411.323 237.716C357.816 260.823 315.062 279.278 268.171 287.532Z" fill="url(#paint23_linear)"/>
<path opacity="0.8" d="M270.366 299.922C238.048 305.61 203.753 306.514 162.607 300.893C150.845 299.28 140.478 297.762 131.007 296.39C85.6318 289.802 60.6375 286.17 -0.418739 288.643L-0.356187 284.606C61.2255 282.1 86.3942 285.763 132.092 292.394C141.539 293.771 151.931 295.284 163.644 296.905C262.951 310.507 322.076 285.122 411.605 246.878C419.23 243.522 427.085 240.247 435.202 236.805L437.131 240.351C429.014 243.793 421.179 247.185 413.533 250.423C360.03 273.288 317.261 291.667 270.366 299.922Z" fill="url(#paint24_linear)"/>
<path opacity="0.8" d="M272.547 312.314C240.23 318.003 205.937 318.924 164.79 313.299C153.029 311.684 142.662 310.166 133.19 308.793C87.8108 302.181 62.816 298.546 1.76276 301.036L1.82516 296.998C63.4073 294.495 88.5765 298.16 134.279 304.816C144.789 306.349 155.306 307.854 165.831 309.33C265.136 322.922 324.264 297.552 413.788 259.281L437.389 249.226L439.314 252.753C431.197 256.196 423.362 259.588 415.717 262.828C362.224 285.756 319.442 304.06 272.547 312.314Z" fill="url(#paint25_linear)"/>
<path opacity="0.8" d="M274.728 324.706C242.411 330.395 208.115 331.299 166.969 325.677C156.423 324.227 145.889 322.726 135.37 321.174C89.9945 314.586 65.0002 310.954 3.94394 313.428L4.0065 309.391C65.5881 306.885 90.7603 310.567 136.458 317.198C145.905 318.575 156.297 320.088 168.01 321.709C267.317 335.311 326.442 309.926 415.994 271.678C423.601 268.406 431.459 265.05 439.568 261.609L441.497 265.155L417.83 275.24C364.403 298.131 321.646 316.448 274.728 324.706Z" fill="url(#paint26_linear)"/>
<path opacity="0.8" d="M277.065 337.984C244.748 343.673 210.444 344.526 169.263 338.708C158.708 337.212 148.166 335.665 137.639 334.066C92.2505 327.254 67.2345 323.512 6.13495 325.875L6.18784 321.783C67.7897 319.392 92.978 323.165 138.715 330.018C149.233 331.597 159.758 333.147 170.291 334.668C269.647 348.681 328.762 323.107 418.256 284.529C425.87 281.248 433.704 277.849 441.82 274.399L443.754 277.978C435.891 281.343 428.038 284.726 420.195 288.127C366.724 311.32 323.96 329.73 277.065 337.984Z" fill="url(#paint27_linear)"/>
<path opacity="0.8" d="M279.403 351.262C247.085 356.95 212.78 357.8 171.602 351.994C159.831 350.327 149.456 348.762 139.977 347.346C94.561 340.529 69.5462 336.781 8.47257 339.155L8.52499 335.06C70.1056 332.679 95.317 336.454 141.032 343.319C151.558 344.899 162.091 346.45 172.633 347.972C271.996 362.024 331.106 336.42 420.601 297.848C428.203 294.548 436.056 291.164 444.16 287.694L446.098 291.296C437.987 294.766 430.156 298.188 422.537 301.429C369.053 324.552 326.298 343.007 279.403 351.262Z" fill="url(#paint28_linear)"/>
<path opacity="0.8" d="M281.584 363.654C249.267 369.343 214.962 370.194 173.781 364.372C163.225 362.875 152.683 361.326 142.156 359.727C96.7447 352.935 71.7304 349.189 10.6538 351.547L10.7063 347.453C72.2865 345.069 97.4974 348.841 143.209 355.683C152.687 357.098 163.061 358.662 174.809 360.331C274.189 374.35 333.28 348.775 422.75 310.194C430.387 306.909 438.221 303.508 446.333 300.038L448.271 303.638C440.159 307.108 432.329 310.529 424.688 313.794C371.232 336.927 328.479 355.399 281.584 363.654Z" fill="url(#paint29_linear)"/>
<path opacity="0.8" d="M283.765 376.046C251.448 381.735 217.155 382.656 176.009 377.031C164.247 375.417 153.88 373.899 144.409 372.525C99.0291 365.913 74.0343 362.278 12.9811 364.769L13.0435 360.731C74.6034 358.231 99.7948 361.893 145.474 368.552C155.991 370.084 166.517 371.588 177.05 373.063C276.358 386.673 335.482 361.284 425.006 323.013L448.607 312.959L450.536 316.505C442.419 319.948 434.584 323.34 426.935 326.56C373.443 349.488 330.66 367.792 283.765 376.046Z" fill="url(#paint30_linear)"/>
<path opacity="0.8" d="M285.947 388.439C253.629 394.127 219.334 395.031 178.188 389.409C166.426 387.796 156.059 386.279 146.588 384.907C101.213 378.319 76.2151 374.667 15.1623 377.16L15.2248 373.123C76.7843 370.621 101.972 374.26 147.65 380.915C157.121 382.288 167.487 383.805 179.225 385.422C278.532 399.024 337.657 373.639 427.186 335.395C434.811 332.039 442.666 328.764 450.783 325.322L452.712 328.868L429.048 338.972C375.621 361.863 332.842 380.184 285.947 388.439Z" fill="url(#paint31_linear)"/>
<path opacity="0.8" d="M288.284 401.716C255.967 407.405 221.661 408.254 180.483 402.449C169.932 400.932 159.391 399.383 148.858 397.801C103.442 390.984 78.4274 387.236 17.3538 389.61L17.4062 385.515C79.009 383.13 104.198 386.908 149.937 393.77C160.454 395.352 170.98 396.904 181.514 398.426C280.896 412.455 339.987 386.875 429.478 348.282C437.092 345.002 444.926 341.601 453.041 338.149L454.976 341.732C447.113 345.097 439.26 348.481 431.418 351.884C377.934 375.007 335.202 393.458 288.284 401.716Z" fill="url(#paint32_linear)"/>
<path opacity="0.8" d="M290.465 414.109C258.148 419.797 223.855 420.718 182.709 415.094C172.162 413.642 161.628 412.14 151.108 410.587C105.758 403.991 80.7575 400.336 19.6809 402.831L19.7433 398.793C81.3254 396.289 106.495 399.955 152.197 406.61C161.644 407.988 172.036 409.502 183.749 411.125C283.058 424.736 342.182 399.347 431.733 361.091C439.34 357.819 447.198 354.462 455.307 351.021L457.235 354.567L433.569 364.654C380.142 387.55 337.383 405.85 290.465 414.109Z" fill="url(#paint33_linear)"/>
<path opacity="0.8" d="M292.647 426.501C260.329 432.19 226.037 433.114 184.889 427.478C174.342 426.028 163.809 424.528 153.29 422.978C107.937 416.37 82.941 412.741 21.8618 415.221L21.9247 411.185C83.5059 408.677 108.674 412.336 154.375 418.983C163.822 420.359 174.209 421.851 185.926 423.492C285.205 437.068 344.357 411.703 433.907 373.441C441.526 370.189 449.365 366.816 457.481 363.375L459.41 366.92C451.542 370.256 443.684 373.612 435.836 376.986C382.325 399.949 339.541 418.246 292.647 426.501Z" fill="url(#paint34_linear)"/>
<path opacity="0.8" d="M294.828 438.893C262.511 444.582 228.218 445.503 187.071 439.878C175.31 438.263 164.943 436.745 155.471 435.372C110.092 428.76 85.0969 425.125 24.0436 427.616L24.106 423.577C85.6659 421.078 110.857 424.739 156.536 431.399C167.054 432.931 177.579 434.435 188.112 435.91C287.421 449.52 346.545 424.131 436.072 385.879C443.697 382.523 451.553 379.248 459.669 375.805L461.598 379.352L437.917 389.36C384.491 412.257 341.723 430.639 294.828 438.893Z" fill="url(#paint35_linear)"/>
<path opacity="0.8" d="M297.009 451.286C264.692 456.974 230.4 457.897 189.25 452.257C178.703 450.806 168.17 449.305 157.651 447.754C112.275 441.166 87.281 437.534 26.2248 440.007L26.2874 435.97C87.8468 433.468 113.038 437.127 158.713 443.762C168.184 445.135 178.55 446.651 190.288 448.269C289.591 461.852 348.72 436.486 438.245 398.222C445.887 394.964 453.726 391.591 461.842 388.15L463.771 391.696C455.654 395.137 447.819 398.529 440.173 401.768C386.683 424.711 343.904 443.031 297.009 451.286Z" fill="url(#paint36_linear)"/>
<path opacity="0.8" d="M299.333 464.566C267.016 470.254 232.726 471.175 191.581 465.55C179.821 463.935 169.455 462.417 159.983 461.043C114.606 454.431 89.6111 450.796 28.5621 453.286L28.6245 449.247C90.1802 446.749 115.372 450.41 161.048 457.07C171.565 458.602 182.09 460.106 192.622 461.581C291.922 475.173 351.046 449.804 440.565 411.534L464.205 401.573L466.134 405.12C458.018 408.562 450.183 411.955 442.535 415.174C389.005 438.008 346.224 456.312 299.333 464.566Z" fill="url(#paint37_linear)"/>
<path opacity="0.8" d="M301.683 477.841C269.366 483.53 235.058 484.361 193.88 478.559C183.325 477.062 172.783 475.513 162.255 473.914C116.844 467.122 91.8299 463.376 30.7533 465.734L30.8059 461.64C92.4082 459.252 117.597 463.028 163.331 469.865C172.786 471.285 183.185 472.845 194.908 474.518C294.292 488.557 353.38 462.962 442.853 424.4C450.473 421.017 458.324 417.715 466.436 414.245L468.374 417.846L444.725 428.033C391.342 451.174 348.578 469.586 301.683 477.841Z" fill="url(#paint38_linear)"/>
<path opacity="0.8" d="M303.865 490.233C271.548 495.922 237.243 496.773 196.065 490.971C184.294 489.306 173.919 487.742 164.44 486.327C119.051 479.51 94.0345 475.765 32.9346 478.126L32.9872 474.032C94.5896 471.644 119.778 475.42 165.516 482.277C176.034 483.857 186.559 485.408 197.093 486.93C296.473 500.949 355.565 475.374 445.058 436.789C452.671 433.508 460.505 430.108 468.62 426.657L470.555 430.238C462.692 433.603 454.839 436.987 446.997 440.389C393.516 463.527 350.783 481.975 303.865 490.233Z" fill="url(#paint39_linear)"/>
<path opacity="0.8" d="M306.046 502.626C273.729 508.314 239.42 509.145 198.243 503.344C187.687 501.847 177.146 500.298 166.618 498.699C121.232 491.902 96.2124 488.137 35.116 490.519L35.1686 486.425C96.7709 484.036 121.96 487.812 167.697 494.67C177.152 496.089 187.551 497.649 199.274 499.322C298.635 513.366 357.746 487.766 447.242 449.201C454.844 445.902 462.698 442.518 470.802 439.049L472.74 442.65L449.087 452.818C395.694 475.899 352.941 494.371 306.046 502.626Z" fill="url(#paint40_linear)"/>
<path opacity="0.8" d="M308.383 515.903C276.066 521.592 241.761 522.443 200.58 516.622C190.024 515.124 179.483 513.576 168.955 511.976C123.544 505.184 98.5297 501.439 37.4531 503.796L37.5057 499.702C99.0859 497.318 124.297 501.09 170.011 507.951C180.537 509.53 191.07 511.08 201.611 512.6C300.969 526.623 360.083 501.043 449.576 462.458C457.19 459.178 465.024 455.778 473.136 452.307L475.074 455.908C467.211 459.273 459.358 462.656 451.515 466.059C398.035 489.197 355.278 507.649 308.383 515.903Z" fill="url(#paint41_linear)"/>
<path opacity="0.8" d="M310.565 528.296C278.247 533.984 243.955 534.905 202.808 529.281C191.047 527.666 180.679 526.148 171.208 524.774C125.829 518.162 100.834 514.528 39.7805 517.018L39.8429 512.98C101.403 510.48 126.594 514.142 172.273 520.801C182.791 522.334 193.316 523.837 203.849 525.312C303.158 538.923 362.282 513.533 451.809 475.282C459.434 471.925 467.29 468.65 475.406 465.208L477.335 468.754L453.668 478.841C400.242 501.737 357.46 520.041 310.565 528.296Z" fill="url(#paint42_linear)"/>
<path opacity="0.8" d="M312.746 540.688C280.429 546.377 246.136 547.3 204.987 541.659C194.44 540.209 183.907 538.708 173.387 537.156C128.012 530.568 103.018 526.936 41.9616 529.41L42.0242 525.372C103.584 522.87 128.775 526.529 174.449 533.164C183.921 534.537 194.286 536.054 206.025 537.672C305.332 551.273 364.457 525.888 453.985 487.644C461.627 484.386 469.466 481.013 477.582 477.571L479.511 481.117C471.394 484.559 463.559 487.951 455.914 491.189C402.42 514.113 359.641 532.433 312.746 540.688Z" fill="url(#paint43_linear)"/>
</g>
</g>
</g>
<path fill-rule="evenodd" clip-rule="evenodd" d="M178.098 169.327C158.972 160.545 156.773 135.528 157.581 111.807C157.614 110.853 157.637 110.213 156.757 110.28C151.153 110.703 133.247 116.467 128.195 118.611C126.879 119.168 126.816 119.525 126.922 120.263C133.55 166.299 169.281 171.012 177.748 169.948C177.956 169.923 178.467 169.889 178.532 169.773C178.598 169.656 178.301 169.426 178.098 169.327Z" fill="white"/>
<path fill-rule="evenodd" clip-rule="evenodd" d="M104.488 142.978C103.766 143.569 103.172 143.742 103.519 144.56C107.287 153.433 123.888 179.601 162.493 172.71C163.416 172.584 164.316 172.28 163.527 172.025C157.538 169.472 137.652 168.382 123.605 134.385C123.461 134.038 123.23 132.661 121.63 133.378C113.684 137.226 105.212 142.387 104.488 142.978Z" fill="white"/>
<path fill-rule="evenodd" clip-rule="evenodd" d="M97.4743 167.974C96.8123 168.86 96.655 168.952 96.9518 169.51C99.6885 174.674 111.969 182.26 137.811 176.949C139.033 176.697 138.982 176.378 138.271 176.089C137.808 175.901 129.204 175.111 120.667 170.579C116.395 168.312 111.791 164.535 108.483 160.758C107.643 159.716 106.973 158.961 106.319 159.454C104.159 161.082 99.1099 165.786 97.4743 167.974Z" fill="white"/>
<path d="M250.042 95.4273L214.926 101.609C209.575 102.55 205.883 106.978 206.679 111.498L214.359 155.132C215.155 159.651 220.137 162.552 225.487 161.611L260.603 155.429C265.954 154.488 269.646 150.06 268.85 145.54L261.17 101.907C260.374 97.3867 255.392 94.4855 250.042 95.4273Z" fill="url(#paint44_linear)"/>
<path d="M222.55 99.3539L225.851 119.964M239.631 97.2599L242.931 117.87L239.631 97.2599Z" stroke="white" stroke-width="0.8" stroke-miterlimit="10"/>
<path d="M262.79 112.348L259.069 116.148L256.616 116.579L251.92 115.491L219.082 121.271L215.617 124.304L212.585 124.838L208.981 122.64" stroke="#A2A2A2" stroke-width="0.8" stroke-miterlimit="10"/>
<path d="M262.945 113.233L259.225 117.033L256.772 117.465L252.076 116.377L219.238 122.157L215.773 125.19L212.741 125.723L209.137 123.525" stroke="white" stroke-width="0.8" stroke-miterlimit="10"/>
<path d="M247.117 138.834L250.358 157.246" stroke="#A1A1A1" stroke-width="0.8" stroke-miterlimit="10"/>
<path d="M266.983 136.253L262.166 133.447L259.789 133.866L255.496 136.79M246.425 138.956L249.666 157.367L246.425 138.956ZM230.029 141.842L233.27 160.254L230.029 141.842ZM213.436 145.471L215.596 142.557L219.299 141.906L223.502 142.565L246.636 138.494L213.436 145.471Z" stroke="white" stroke-width="0.8" stroke-miterlimit="10"/>
<path d="M223.338 100.147L226.797 119.798M239.797 97.2498L243.256 116.901L239.797 97.2498Z" stroke="#A2A2A2" stroke-width="0.8" stroke-miterlimit="10"/>
<path d="M230.502 140.846L233.899 160.143M213.358 145.028L215.519 142.115L219.221 141.463L223.425 142.123L246.558 138.051L247.243 139.268L213.358 145.028ZM266.871 135.613L262.054 132.809L259.677 133.227L255.383 136.151L266.871 135.613Z" stroke="#A1A1A1" stroke-width="0.8" stroke-miterlimit="10"/>
<path d="M362.139 431.104L356.809 432.042L354.402 418.368L359.645 417.445C365.388 416.435 368.838 418.706 369.545 422.724C370.252 426.741 367.686 430.128 362.139 431.104ZM360.112 419.592L357.937 419.975L359.583 429.326L361.585 428.973C362.375 428.936 363.156 428.745 363.866 428.415C364.574 428.085 365.191 427.625 365.669 427.071C366.144 426.519 366.466 425.887 366.607 425.228C366.749 424.571 366.706 423.904 366.481 423.282C366.46 422.64 366.266 422.02 365.914 421.468C365.56 420.913 365.057 420.441 364.443 420.087C363.829 419.733 363.12 419.506 362.368 419.423C361.614 419.337 360.836 419.396 360.091 419.595L360.112 419.592ZM373.734 429.063L371.327 415.389L380.921 413.7L381.311 415.916L374.785 417.065L375.346 420.254L380.328 419.377L381.162 421.57L375.811 422.512L376.477 426.296L383.177 425.117L383.567 427.332L373.734 429.063ZM390.876 426.046L386.134 426.881L383.727 413.206L388.535 412.36C392.254 411.705 394.261 412.782 394.651 414.999C394.778 415.62 394.663 416.271 394.323 416.857C393.982 417.446 393.434 417.94 392.759 418.266C393.686 418.269 394.561 418.547 395.229 419.052C395.897 419.557 396.313 420.255 396.406 421.023C396.872 423.672 394.748 425.364 390.876 426.046ZM388.821 414.371L387.233 414.651L387.868 418.254L389.325 417.998C391.196 417.669 392.054 416.811 391.857 415.695C391.66 414.578 390.627 414.053 388.712 414.39L388.821 414.371ZM389.789 419.866L388.135 420.157L388.871 424.337L390.568 424.039C392.569 423.686 393.619 422.777 393.382 421.426C393.144 420.074 391.833 419.507 389.745 419.874L389.789 419.866ZM399.795 424.476L397.388 410.802L400.563 410.243L402.97 423.917L399.795 424.476ZM411.601 410.641L413.609 422.044L410.411 422.607L408.404 411.204L403.509 412.065L403.109 409.795L415.944 407.536L416.778 409.729L411.601 410.641ZM349.411 449.764L339.482 482.549L329.541 484.299L317.81 461.605C317.647 461.057 317.319 460.561 316.857 460.165C316.395 459.768 315.813 459.484 315.167 459.34C311.988 458.694 308.702 458.386 305.385 458.424L305.448 457.503L321.457 454.685C322.506 454.49 323.58 454.618 324.483 455.044C325.381 455.467 326.045 456.162 326.351 457L333.377 473.724L339.557 451.499L349.411 449.764ZM391.942 463.192C390.544 455.247 377.197 457.151 376.657 453.568C376.467 452.488 377.528 451.13 380.194 450.345C383.328 449.538 386.609 449.442 389.699 450.065L390.208 443.401C387.27 443.023 384.246 443.09 381.272 443.599C371.983 445.234 366.155 450.476 367.12 456.343C367.884 460.685 372.987 462.275 376.807 463.089C380.629 463.903 382.127 464.642 382.34 465.979C382.696 467.996 379.936 469.392 377.223 469.906C373.876 470.566 370.436 470.5 367.232 469.715L366.695 476.607C370.224 477.082 373.866 477.002 377.441 476.37C387.317 474.631 393.064 469.44 392.008 463.181L391.942 463.192ZM418.209 468.692L426.91 467.16L413.997 438.395L405.948 439.812C405.093 439.965 404.294 440.323 403.65 440.844C403.008 441.361 402.551 442.019 402.335 442.733L393.191 473.095L403.068 471.357L404.237 466.526L416.332 464.397L418.209 468.692ZM405.824 459.876L408.921 447.778L413.759 458.572L405.824 459.876ZM362.855 447.398L360.365 478.873L350.969 480.527L353.435 449.056L362.855 447.398Z" fill="white"/>
<defs>
<filter id="filter0_d" x="0.991905" y="0.389429" width="472.525" height="566.466" filterUnits="userSpaceOnUse" color-interpolation-filters="sRGB">
<feFlood flood-opacity="0" result="BackgroundImageFix"/>
<feColorMatrix in="SourceAlpha" type="matrix" values="0 0 0 0 0 0 0 0 0 0 0 0 0 0 0 0 0 0 127 0" result="hardAlpha"/>
<feOffset dy="1.6"/>
<feGaussianBlur stdDeviation="12.5"/>
<feColorMatrix type="matrix" values="0 0 0 0 0 0 0 0 0 0 0 0 0 0 0 0 0 0 0.1 0"/>
<feBlend mode="normal" in2="BackgroundImageFix" result="effect1_dropShadow"/>
<feBlend mode="normal" in="SourceGraphic" in2="effect1_dropShadow" result="shape"/>
</filter>
<linearGradient id="paint0_linear" x1="364.815" y1="20.9251" x2="176.37" y2="190.383" gradientUnits="userSpaceOnUse">
<stop stop-color="white"/>
<stop offset="1" stop-color="#6A64D1"/>
</linearGradient>
<linearGradient id="paint1_linear" x1="155.228" y1="184.668" x2="468.691" y2="484.491" gradientUnits="userSpaceOnUse">
<stop stop-color="#4840BB"/>
<stop offset="1" stop-color="#75CBCF"/>
</linearGradient>
<linearGradient id="paint2_linear" x1="155.228" y1="184.668" x2="468.691" y2="484.491" gradientUnits="userSpaceOnUse">
<stop stop-color="#4840BB"/>
<stop offset="1" stop-color="#75CBCF"/>
</linearGradient>
<linearGradient id="paint3_linear" x1="382.504" y1="438.062" x2="-15.1555" y2="264.656" gradientUnits="userSpaceOnUse">
<stop stop-color="#6EB4CC"/>
<stop offset="1" stop-color="#4941BC"/>
</linearGradient>
<linearGradient id="paint4_linear" x1="382.504" y1="438.062" x2="-15.1555" y2="264.656" gradientUnits="userSpaceOnUse">
<stop stop-color="#6EB4CC"/>
<stop offset="1" stop-color="#4941BC"/>
</linearGradient>
<linearGradient id="paint5_linear" x1="382.504" y1="438.062" x2="-15.1555" y2="264.656" gradientUnits="userSpaceOnUse">
<stop stop-color="#6EB4CC"/>
<stop offset="1" stop-color="#4941BC"/>
</linearGradient>
<linearGradient id="paint6_linear" x1="382.504" y1="438.062" x2="-15.1555" y2="264.656" gradientUnits="userSpaceOnUse">
<stop stop-color="#6EB4CC"/>
<stop offset="1" stop-color="#4941BC"/>
</linearGradient>
<linearGradient id="paint7_linear" x1="382.504" y1="438.062" x2="-15.1555" y2="264.656" gradientUnits="userSpaceOnUse">
<stop stop-color="#6EB4CC"/>
<stop offset="1" stop-color="#4941BC"/>
</linearGradient>
<linearGradient id="paint8_linear" x1="382.504" y1="438.062" x2="-15.1555" y2="264.656" gradientUnits="userSpaceOnUse">
<stop stop-color="#6EB4CC"/>
<stop offset="1" stop-color="#4941BC"/>
</linearGradient>
<linearGradient id="paint9_linear" x1="382.504" y1="438.062" x2="-15.1555" y2="264.656" gradientUnits="userSpaceOnUse">
<stop stop-color="#6EB4CC"/>
<stop offset="1" stop-color="#4941BC"/>
</linearGradient>
<linearGradient id="paint10_linear" x1="382.504" y1="438.062" x2="-15.1555" y2="264.656" gradientUnits="userSpaceOnUse">
<stop stop-color="#6EB4CC"/>
<stop offset="1" stop-color="#4941BC"/>
</linearGradient>
<linearGradient id="paint11_linear" x1="382.504" y1="438.062" x2="-15.1555" y2="264.656" gradientUnits="userSpaceOnUse">
<stop stop-color="#6EB4CC"/>
<stop offset="1" stop-color="#4941BC"/>
</linearGradient>
<linearGradient id="paint12_linear" x1="382.504" y1="438.062" x2="-15.1555" y2="264.656" gradientUnits="userSpaceOnUse">
<stop stop-color="#6EB4CC"/>
<stop offset="1" stop-color="#4941BC"/>
</linearGradient>
<linearGradient id="paint13_linear" x1="382.504" y1="438.062" x2="-15.1555" y2="264.656" gradientUnits="userSpaceOnUse">
<stop stop-color="#6EB4CC"/>
<stop offset="1" stop-color="#4941BC"/>
</linearGradient>
<linearGradient id="paint14_linear" x1="382.504" y1="438.062" x2="-15.1555" y2="264.656" gradientUnits="userSpaceOnUse">
<stop stop-color="#6EB4CC"/>
<stop offset="1" stop-color="#4941BC"/>
</linearGradient>
<linearGradient id="paint15_linear" x1="382.504" y1="438.062" x2="-15.1555" y2="264.656" gradientUnits="userSpaceOnUse">
<stop stop-color="#6EB4CC"/>
<stop offset="1" stop-color="#4941BC"/>
</linearGradient>
<linearGradient id="paint16_linear" x1="382.504" y1="438.062" x2="-15.1555" y2="264.656" gradientUnits="userSpaceOnUse">
<stop stop-color="#6EB4CC"/>
<stop offset="1" stop-color="#4941BC"/>
</linearGradient>
<linearGradient id="paint17_linear" x1="382.504" y1="438.062" x2="-15.1555" y2="264.656" gradientUnits="userSpaceOnUse">
<stop stop-color="#6EB4CC"/>
<stop offset="1" stop-color="#4941BC"/>
</linearGradient>
<linearGradient id="paint18_linear" x1="382.504" y1="438.062" x2="-15.1555" y2="264.656" gradientUnits="userSpaceOnUse">
<stop stop-color="#6EB4CC"/>
<stop offset="1" stop-color="#4941BC"/>
</linearGradient>
<linearGradient id="paint19_linear" x1="382.504" y1="438.062" x2="-15.1555" y2="264.656" gradientUnits="userSpaceOnUse">
<stop stop-color="#6EB4CC"/>
<stop offset="1" stop-color="#4941BC"/>
</linearGradient>
<linearGradient id="paint20_linear" x1="382.504" y1="438.062" x2="-15.1555" y2="264.656" gradientUnits="userSpaceOnUse">
<stop stop-color="#6EB4CC"/>
<stop offset="1" stop-color="#4941BC"/>
</linearGradient>
<linearGradient id="paint21_linear" x1="382.504" y1="438.062" x2="-15.1555" y2="264.656" gradientUnits="userSpaceOnUse">
<stop stop-color="#6EB4CC"/>
<stop offset="1" stop-color="#4941BC"/>
</linearGradient>
<linearGradient id="paint22_linear" x1="382.504" y1="438.062" x2="-15.1555" y2="264.656" gradientUnits="userSpaceOnUse">
<stop stop-color="#6EB4CC"/>
<stop offset="1" stop-color="#4941BC"/>
</linearGradient>
<linearGradient id="paint23_linear" x1="382.504" y1="438.062" x2="-15.1555" y2="264.656" gradientUnits="userSpaceOnUse">
<stop stop-color="#6EB4CC"/>
<stop offset="1" stop-color="#4941BC"/>
</linearGradient>
<linearGradient id="paint24_linear" x1="382.504" y1="438.062" x2="-15.1555" y2="264.656" gradientUnits="userSpaceOnUse">
<stop stop-color="#6EB4CC"/>
<stop offset="1" stop-color="#4941BC"/>
</linearGradient>
<linearGradient id="paint25_linear" x1="382.504" y1="438.062" x2="-15.1555" y2="264.656" gradientUnits="userSpaceOnUse">
<stop stop-color="#6EB4CC"/>
<stop offset="1" stop-color="#4941BC"/>
</linearGradient>
<linearGradient id="paint26_linear" x1="382.504" y1="438.062" x2="-15.1555" y2="264.656" gradientUnits="userSpaceOnUse">
<stop stop-color="#6EB4CC"/>
<stop offset="1" stop-color="#4941BC"/>
</linearGradient>
<linearGradient id="paint27_linear" x1="382.504" y1="438.062" x2="-15.1556" y2="264.656" gradientUnits="userSpaceOnUse">
<stop stop-color="#6EB4CC"/>
<stop offset="1" stop-color="#4941BC"/>
</linearGradient>
<linearGradient id="paint28_linear" x1="382.504" y1="438.062" x2="-15.1555" y2="264.656" gradientUnits="userSpaceOnUse">
<stop stop-color="#6EB4CC"/>
<stop offset="1" stop-color="#4941BC"/>
</linearGradient>
<linearGradient id="paint29_linear" x1="382.504" y1="438.062" x2="-15.1555" y2="264.656" gradientUnits="userSpaceOnUse">
<stop stop-color="#6EB4CC"/>
<stop offset="1" stop-color="#4941BC"/>
</linearGradient>
<linearGradient id="paint30_linear" x1="382.504" y1="438.062" x2="-15.1555" y2="264.656" gradientUnits="userSpaceOnUse">
<stop stop-color="#6EB4CC"/>
<stop offset="1" stop-color="#4941BC"/>
</linearGradient>
<linearGradient id="paint31_linear" x1="382.504" y1="438.062" x2="-15.1554" y2="264.656" gradientUnits="userSpaceOnUse">
<stop stop-color="#6EB4CC"/>
<stop offset="1" stop-color="#4941BC"/>
</linearGradient>
<linearGradient id="paint32_linear" x1="382.504" y1="438.062" x2="-15.1555" y2="264.656" gradientUnits="userSpaceOnUse">
<stop stop-color="#6EB4CC"/>
<stop offset="1" stop-color="#4941BC"/>
</linearGradient>
<linearGradient id="paint33_linear" x1="382.504" y1="438.062" x2="-15.1555" y2="264.656" gradientUnits="userSpaceOnUse">
<stop stop-color="#6EB4CC"/>
<stop offset="1" stop-color="#4941BC"/>
</linearGradient>
<linearGradient id="paint34_linear" x1="382.504" y1="438.062" x2="-15.1555" y2="264.656" gradientUnits="userSpaceOnUse">
<stop stop-color="#6EB4CC"/>
<stop offset="1" stop-color="#4941BC"/>
</linearGradient>
<linearGradient id="paint35_linear" x1="382.504" y1="438.062" x2="-15.1554" y2="264.656" gradientUnits="userSpaceOnUse">
<stop stop-color="#6EB4CC"/>
<stop offset="1" stop-color="#4941BC"/>
</linearGradient>
<linearGradient id="paint36_linear" x1="382.504" y1="438.062" x2="-15.1554" y2="264.656" gradientUnits="userSpaceOnUse">
<stop stop-color="#6EB4CC"/>
<stop offset="1" stop-color="#4941BC"/>
</linearGradient>
<linearGradient id="paint37_linear" x1="382.504" y1="438.062" x2="-15.1555" y2="264.656" gradientUnits="userSpaceOnUse">
<stop stop-color="#6EB4CC"/>
<stop offset="1" stop-color="#4941BC"/>
</linearGradient>
<linearGradient id="paint38_linear" x1="382.504" y1="438.062" x2="-15.1555" y2="264.656" gradientUnits="userSpaceOnUse">
<stop stop-color="#6EB4CC"/>
<stop offset="1" stop-color="#4941BC"/>
</linearGradient>
<linearGradient id="paint39_linear" x1="382.504" y1="438.062" x2="-15.1555" y2="264.656" gradientUnits="userSpaceOnUse">
<stop stop-color="#6EB4CC"/>
<stop offset="1" stop-color="#4941BC"/>
</linearGradient>
<linearGradient id="paint40_linear" x1="382.504" y1="438.062" x2="-15.1554" y2="264.656" gradientUnits="userSpaceOnUse">
<stop stop-color="#6EB4CC"/>
<stop offset="1" stop-color="#4941BC"/>
</linearGradient>
<linearGradient id="paint41_linear" x1="382.504" y1="438.062" x2="-15.1554" y2="264.656" gradientUnits="userSpaceOnUse">
<stop stop-color="#6EB4CC"/>
<stop offset="1" stop-color="#4941BC"/>
</linearGradient>
<linearGradient id="paint42_linear" x1="382.504" y1="438.062" x2="-15.1555" y2="264.656" gradientUnits="userSpaceOnUse">
<stop stop-color="#6EB4CC"/>
<stop offset="1" stop-color="#4941BC"/>
</linearGradient>
<linearGradient id="paint43_linear" x1="382.504" y1="438.062" x2="-15.1555" y2="264.656" gradientUnits="userSpaceOnUse">
<stop stop-color="#6EB4CC"/>
<stop offset="1" stop-color="#4941BC"/>
</linearGradient>
<linearGradient id="paint44_linear" x1="231.976" y1="94.0443" x2="243.127" y2="158.506" gradientUnits="userSpaceOnUse">
<stop offset="0.144" stop-color="#FEFEFE"/>
<stop offset="1" stop-color="#C1C1C1"/>
</linearGradient>
</defs>
</svg>
