<svg width="124" height="62" viewBox="0 0 124 62" fill="none" xmlns="http://www.w3.org/2000/svg">
<path d="M58.1659 17.396H57.8715C56.4586 17.396 55.7345 17.6499 55.2323 20.051L49.8791 45.6873H48.2241L44.8851 28.9169H44.8484L41.4392 45.6873H39.7865L34.5395 19.3933C34.206 17.7214 33.7225 17.3952 32.2307 17.3952H32.1214V16.291H40.0435V17.396H39.8951C38.7555 17.396 38.4689 17.7221 38.4689 18.4878C38.4689 18.6587 38.5001 19.0027 38.5415 19.2124L41.8805 37.0156H41.9484L44.1134 25.299L42.9809 19.3941C42.6998 17.9373 42.3639 17.396 41.1799 17.396H41.0002V16.291H48.8458V17.396H48.7029C47.3079 17.396 46.9432 17.8852 46.9408 18.8839C46.9408 19.158 46.9822 19.4632 47.0478 19.7971L50.3899 36.795H50.4625L53.6171 19.7583C53.664 19.5098 53.6929 19.1712 53.6929 18.9561C53.6929 17.9 53.3024 17.396 51.7466 17.396H51.5255V16.291H58.1675V17.396H58.1659ZM74.0052 38.4009C74.0052 43.558 70.8585 45.685 67.1812 45.685C64.5132 45.685 63.2933 44.8129 62.01 43.9385L61.318 45.4652H60.5479V35.4485H61.5367V35.7436C61.5367 42.7768 65.0998 44.3788 66.8898 44.3788C69.4955 44.3788 70.8124 42.4716 70.8124 39.7412C70.8124 36.3982 68.6964 33.9451 65.6387 31.655C62.8746 29.5669 60.3245 27.0105 60.3245 22.7565C60.3245 18.3597 63.0441 16.0728 66.3026 16.0728C69.0145 16.0728 70.2741 17.1778 70.9976 17.7959L71.7339 16.3678H72.465V26.4312H71.4762V26.1415C71.4762 20.6839 69.8236 17.3952 66.5627 17.3952C64.5796 17.3952 63.4034 18.8365 63.4034 21.1522C63.4034 23.8926 65.035 25.4473 68.0669 27.7792C71.4207 30.3691 74.0052 33.0994 74.0052 38.4009ZM91.9827 17.3944H91.1815C90.1847 17.3944 89.5653 17.8627 89.5653 19.071V39.4174C89.5653 43.9843 86.6819 45.685 82.9962 45.685C80.3649 45.685 77.7155 43.5448 77.7155 39.4174C77.7155 37.205 79.1003 36.2499 80.2119 36.2499C81.3623 36.2499 82.1926 37.0575 82.1926 38.4312C82.1926 40.1909 81.1591 40.9332 79.811 41.1251C79.811 42.6339 80.9718 44.378 82.958 44.378C84.8708 44.378 85.5321 43.325 85.5321 40.1831V19.071C85.5321 17.865 84.9495 17.3944 83.952 17.3944H83.0361V16.2917H91.9837V17.3944H91.9827Z" fill="#230B59"/>
</svg>
